<svg width="373" height="225" viewBox="0 0 373 225" fill="none" xmlns="http://www.w3.org/2000/svg">
<path d="M0 6.51428C0 2.91654 2.91655 0 6.51429 0H366.486C370.083 0 373 2.91655 373 6.51429V218.486C373 222.083 370.083 225 366.486 225H6.51429C2.91655 225 0 222.083 0 218.486V6.51428Z" fill="white"/>
<rect x="45" y="44.2656" width="119" height="1.29993" fill="#E9EBEF"/>
<rect x="45" y="84.2388" width="119" height="1.29993" fill="#E9EBEF"/>
<rect x="45" y="124.211" width="119" height="1.29993" fill="#E9EBEF"/>
<rect x="45" y="164.184" width="119" height="1.29993" fill="#E9EBEF"/>
<rect x="45" y="204.7" width="119" height="1.29993" fill="#E9EBEF"/>
<rect x="228" y="44.2656" width="128" height="1.29189" fill="#E9EBEF"/>
<rect x="228" y="83.9912" width="128" height="1.29189" fill="#E9EBEF"/>
<rect x="228" y="123.717" width="128" height="1.29189" fill="#E9EBEF"/>
<rect x="228" y="163.442" width="128" height="1.29189" fill="#E9EBEF"/>
<rect x="228" y="203.708" width="128" height="1.29189" fill="#E9EBEF"/>
<path d="M19.3611 17.9945L19.3592 16.7267L25.3322 16.7178L25.3341 17.9856L23.1075 17.9889L23.1165 23.9939L21.5966 23.9962L21.5876 17.9912L19.3611 17.9945ZM25.7319 23.99L25.7237 18.5354L27.1904 18.5333L27.1918 19.485L27.2486 19.4849C27.3475 19.1462 27.5141 18.8903 27.7482 18.7171C27.9823 18.5416 28.252 18.4536 28.5574 18.4531C28.6332 18.453 28.7149 18.4576 28.8025 18.4669C28.8901 18.4763 28.9671 18.4892 29.0334 18.5057L29.0354 19.848C28.9643 19.8268 28.866 19.808 28.7405 19.7916C28.615 19.7752 28.5002 19.7671 28.396 19.7673C28.1735 19.7676 27.9747 19.8164 27.7997 19.9137C27.627 20.0087 27.4899 20.1415 27.3883 20.3121C27.2892 20.4827 27.2397 20.6793 27.2401 20.9018L27.2447 23.9877L25.7319 23.99ZM31.223 24.0848C30.875 24.0853 30.5647 24.0254 30.2923 23.9051C30.0199 23.7824 29.8042 23.6016 29.6452 23.3627C29.4886 23.1215 29.41 22.8209 29.4095 22.4611C29.409 22.158 29.4643 21.9035 29.5752 21.6973C29.6862 21.4912 29.8375 21.3253 30.029 21.1995C30.2206 21.0737 30.4383 20.9787 30.682 20.9144C30.9281 20.8501 31.1861 20.8048 31.456 20.7783C31.7732 20.7447 32.0288 20.7136 32.2229 20.6849C32.417 20.6538 32.5578 20.6086 32.6453 20.5493C32.7328 20.49 32.7764 20.4023 32.7763 20.2863L32.7762 20.265C32.7759 20.0401 32.7046 19.8662 32.5624 19.7433C32.4225 19.6204 32.2236 19.5591 31.9655 19.5595C31.6933 19.5599 31.4767 19.6206 31.3159 19.7416C31.1551 19.8602 31.0488 20.0095 30.997 20.1895L29.5977 20.078C29.6682 19.7464 29.8075 19.4598 30.0154 19.218C30.2234 18.9738 30.4918 18.7864 30.8207 18.6557C31.1519 18.5226 31.5354 18.4558 31.971 18.4551C32.274 18.4547 32.5641 18.4897 32.8412 18.5604C33.1206 18.631 33.3682 18.7407 33.5838 18.8895C33.8019 19.0383 33.9738 19.2298 34.0996 19.464C34.2254 19.6958 34.2886 19.9739 34.2891 20.2983L34.2946 23.9772L32.8599 23.9794L32.8588 23.223L32.8162 23.223C32.7288 23.3936 32.6118 23.5441 32.4653 23.6746C32.3187 23.8026 32.1424 23.9035 31.9366 23.9772C31.7307 24.0485 31.4929 24.0844 31.223 24.0848ZM31.6547 23.0401C31.8772 23.0398 32.0736 22.9957 32.2439 22.9078C32.4143 22.8176 32.5478 22.6967 32.6447 22.545C32.7415 22.3934 32.7898 22.2217 32.7895 22.0299L32.7887 21.4511C32.7414 21.4819 32.6763 21.5104 32.5935 21.5366C32.513 21.5604 32.4219 21.583 32.3201 21.6045C32.2184 21.6236 32.1166 21.6415 32.0148 21.6582C31.913 21.6725 31.8207 21.6857 31.7379 21.6977C31.5604 21.724 31.4054 21.7656 31.2729 21.8226C31.1404 21.8797 31.0375 21.9568 30.9643 22.0539C30.891 22.1487 30.8545 22.2672 30.8547 22.4092C30.855 22.6152 30.9298 22.7725 31.0791 22.8812C31.2308 22.9875 31.4226 23.0405 31.6547 23.0401ZM38.3933 18.5166L38.395 19.6529L35.0285 19.6579L35.0268 18.5216L38.3933 18.5166ZM35.8056 23.975L35.7968 18.1263C35.7963 17.7309 35.8727 17.4029 36.0262 17.1423C36.1821 16.8816 36.3948 16.686 36.6645 16.5554C36.9342 16.4248 37.2407 16.3592 37.584 16.3587C37.816 16.3583 38.0279 16.3758 38.2197 16.411C38.4139 16.4462 38.5584 16.478 38.6531 16.5062L38.3849 17.643C38.3257 17.6241 38.2523 17.6065 38.1647 17.5901C38.0794 17.5736 37.9918 17.5655 37.9018 17.5656C37.6793 17.5659 37.5243 17.6182 37.4369 17.7225C37.3494 17.8245 37.3058 17.9678 37.3061 18.1524L37.3148 23.9727L35.8056 23.975ZM42.2507 18.5108L42.2524 19.6472L38.886 19.6522L38.8843 18.5158L42.2507 18.5108ZM39.663 23.9692L39.6543 18.1205C39.6537 17.7252 39.7301 17.3971 39.8836 17.1365C40.0395 16.8759 40.2523 16.6802 40.522 16.5496C40.7916 16.419 41.0981 16.3534 41.4414 16.3529C41.6734 16.3526 41.8853 16.37 42.0771 16.4053C42.2713 16.4405 42.4158 16.4722 42.5105 16.5005L42.2423 17.6373C42.1831 17.6184 42.1097 17.6008 42.0221 17.5843C41.9368 17.5679 41.8492 17.5597 41.7593 17.5598C41.5367 17.5602 41.3817 17.6125 41.2943 17.7168C41.2069 17.8187 41.1633 17.962 41.1635 18.1467L41.1722 23.967L39.663 23.9692ZM43.183 23.964L43.1749 18.5094L44.6877 18.5072L44.6958 23.9617L43.183 23.964ZM43.9338 17.8052C43.7089 17.8055 43.5159 17.7312 43.3546 17.5823C43.1958 17.431 43.1162 17.2501 43.1159 17.0394C43.1156 16.831 43.1946 16.6522 43.353 16.5028C43.5138 16.351 43.7066 16.275 43.9315 16.2746C44.1564 16.2743 44.3483 16.3498 44.5072 16.5011C44.6684 16.65 44.7491 16.8286 44.7494 17.0369C44.7497 17.2476 44.6695 17.4289 44.5088 17.5806C44.3504 17.73 44.1587 17.8049 43.9338 17.8052ZM48.3723 24.0628C47.8136 24.0636 47.3328 23.946 46.93 23.7098C46.5296 23.4713 46.2213 23.1403 46.0052 22.7169C45.7915 22.2934 45.6843 21.8059 45.6835 21.2543C45.6826 20.6956 45.7896 20.2054 46.0044 19.7836C46.2216 19.3595 46.53 19.0288 46.9298 18.7915C47.3295 18.5518 47.8052 18.4315 48.3568 18.4307C48.8327 18.43 49.2495 18.5158 49.6072 18.6881C49.9649 18.8604 50.2482 19.1026 50.457 19.4148C50.6658 19.727 50.7812 20.0938 50.8031 20.5151L49.3755 20.5173C49.3349 20.2451 49.228 20.0262 49.055 19.8608C48.8843 19.6929 48.6604 19.6092 48.3834 19.6096C48.149 19.61 47.9444 19.6742 47.7694 19.8023C47.5967 19.928 47.4621 20.1117 47.3654 20.3533C47.2686 20.595 47.2206 20.8874 47.2211 21.2307C47.2216 21.5787 47.2694 21.8746 47.3644 22.1183C47.4619 22.362 47.5983 22.5476 47.7736 22.6752C47.949 22.8028 48.1539 22.8664 48.3883 22.866C48.5611 22.8658 48.7161 22.83 48.8533 22.7588C48.9929 22.6876 49.1076 22.5844 49.1973 22.4493C49.2894 22.3119 49.3496 22.1473 49.3777 21.9555L50.8052 21.9533C50.7822 22.37 50.6691 22.7372 50.466 23.0547C50.2652 23.3699 49.9874 23.6165 49.6326 23.7946C49.2777 23.9727 48.8576 24.0621 48.3723 24.0628ZM53.8337 17.9431L53.8318 16.6754L59.8048 16.6665L59.8067 17.9342L57.5802 17.9376L57.5891 23.9425L56.0692 23.9448L56.0603 17.9398L53.8337 17.9431ZM60.2045 23.9386L60.1964 18.4841L61.663 18.4819L61.6644 19.4336L61.7213 19.4335C61.8202 19.0948 61.9867 18.8389 62.2208 18.6657C62.4549 18.4902 62.7247 18.4022 63.0301 18.4017C63.1059 18.4016 63.1875 18.4062 63.2751 18.4156C63.3628 18.4249 63.4397 18.4378 63.506 18.4543L63.508 19.7966C63.437 19.7754 63.3387 19.7566 63.2132 19.7402C63.0877 19.7239 62.9729 19.7157 62.8687 19.7159C62.6462 19.7162 62.4474 19.7651 62.2723 19.8624C62.0996 19.9573 61.9625 20.0901 61.861 20.2607C61.7618 20.4313 61.7124 20.6279 61.7127 20.8504L61.7173 23.9364L60.2045 23.9386ZM66.5284 24.0357C65.9673 24.0366 65.4842 23.9237 65.079 23.697C64.6762 23.4679 64.3656 23.1441 64.1472 22.7254C63.9287 22.3043 63.8191 21.8061 63.8182 21.2308C63.8174 20.6697 63.9256 20.1772 64.1427 19.7531C64.3599 19.329 64.666 18.9983 65.061 18.7609C65.4584 18.5236 65.9246 18.4045 66.4596 18.4037C66.8195 18.4032 67.1545 18.4607 67.4648 18.5762C67.7775 18.6894 68.05 18.8606 68.2824 19.0899C68.5171 19.3192 68.6998 19.6078 68.8305 19.9556C68.9613 20.301 69.027 20.7058 69.0277 21.1698L69.0283 21.5853L64.4225 21.5921L64.4211 20.6546L67.6029 20.6499C67.6026 20.4321 67.5549 20.2392 67.46 20.0713C67.365 19.9033 67.2334 19.7721 67.0652 19.6777C66.8993 19.5809 66.7063 19.5326 66.4862 19.533C66.2565 19.5333 66.053 19.5869 65.8756 19.6937C65.7006 19.7981 65.5635 19.9392 65.4643 20.1169C65.3651 20.2922 65.3145 20.4876 65.3125 20.703L65.3138 21.5944C65.3142 21.8642 65.3643 22.0974 65.464 22.2937C65.5661 22.4901 65.7095 22.6414 65.8944 22.7476C66.0792 22.8539 66.2982 22.9068 66.5516 22.9064C66.7196 22.9062 66.8735 22.8823 67.0131 22.8347C67.1527 22.7872 67.2721 22.716 67.3714 22.6211C67.4707 22.5263 67.5463 22.4102 67.5982 22.2728L68.9975 22.363C68.927 22.6993 68.7818 22.9931 68.562 23.2444C68.3446 23.4933 68.0631 23.6878 67.7177 23.828C67.3746 23.9658 66.9782 24.0351 66.5284 24.0357ZM71.5271 20.7683L71.5318 23.9217L70.019 23.924L70.0109 18.4695L71.4526 18.4673L71.4541 19.4297L71.518 19.4296C71.6382 19.1122 71.8403 18.8609 72.1241 18.6758C72.4079 18.4884 72.7522 18.3944 73.1571 18.3937C73.5358 18.3932 73.8662 18.4756 74.1482 18.6409C74.4302 18.8062 74.6495 19.0426 74.8062 19.3501C74.9629 19.6553 75.0416 20.0197 75.0422 20.4435L75.0474 23.9165L73.5346 23.9188L73.5298 20.7156C73.5317 20.3818 73.4461 20.1215 73.273 19.9348C73.0999 19.7456 72.8618 19.6513 72.5588 19.6517C72.3552 19.652 72.1753 19.6961 72.0192 19.7839C71.8655 19.8718 71.7449 19.9998 71.6576 20.168C71.5726 20.3338 71.5291 20.534 71.5271 20.7683ZM78.2498 24.0005C77.8355 24.0011 77.4601 23.8952 77.1236 23.6826C76.7894 23.4677 76.5238 23.152 76.3267 22.7356C76.132 22.3169 76.0341 21.8033 76.0332 21.1949C76.0323 20.5699 76.1321 20.0501 76.3327 19.6355C76.5334 19.2185 76.8004 18.9068 77.1339 18.7003C77.4698 18.4915 77.8378 18.3868 78.2378 18.3862C78.5432 18.3857 78.7978 18.4374 79.0016 18.5413C79.2077 18.6428 79.3736 18.7704 79.4993 18.9241C79.6274 19.0754 79.7247 19.2244 79.7912 19.3711L79.8373 19.371L79.8333 16.6366L81.3425 16.6344L81.3533 23.9071L79.8618 23.9093L79.8605 23.0358L79.7966 23.0359C79.7258 23.1875 79.6254 23.338 79.4954 23.4873C79.3678 23.6343 79.2011 23.7564 78.9953 23.8538C78.7918 23.9512 78.5433 24.0001 78.2498 24.0005ZM78.7274 22.796C78.9712 22.7956 79.1771 22.729 79.345 22.5962C79.5152 22.461 79.6452 22.2726 79.7348 22.031C79.8267 21.7894 79.8725 21.5064 79.872 21.182C79.8715 20.8577 79.8261 20.5761 79.7358 20.3371C79.6455 20.0981 79.515 19.9136 79.3443 19.7837C79.1737 19.6537 78.9664 19.5889 78.7226 19.5893C78.474 19.5897 78.2646 19.6574 78.0943 19.7926C77.9241 19.9278 77.7953 20.1151 77.7081 20.3543C77.6209 20.5935 77.5775 20.8706 77.578 21.1855C77.5784 21.5027 77.6226 21.7832 77.7106 22.0269C77.8009 22.2682 77.9302 22.4574 78.0985 22.5945C78.2692 22.7292 78.4788 22.7963 78.7274 22.796Z" fill="#171A22"/>
<path d="M202.647 23.9991L202.636 16.7263L204.174 16.724L204.179 19.9307L204.274 19.9306L206.887 16.72L208.73 16.7173L206.036 19.9777L208.773 23.9899L206.933 23.9927L204.937 21.0056L204.182 21.93L204.185 23.9968L202.647 23.9991ZM211.599 24.0923C211.038 24.0931 210.554 23.9802 210.149 23.7535C209.747 23.5245 209.436 23.2006 209.217 22.7819C208.999 22.3608 208.889 21.8626 208.889 21.2873C208.888 20.7263 208.996 20.2337 209.213 19.8096C209.43 19.3855 209.736 19.0548 210.131 18.8174C210.529 18.5801 210.995 18.461 211.53 18.4602C211.89 18.4597 212.225 18.5172 212.535 18.6328C212.848 18.7459 213.12 18.9172 213.353 19.1464C213.587 19.3757 213.77 19.6643 213.901 20.0121C214.032 20.3576 214.097 20.7623 214.098 21.2263L214.099 21.6418L209.493 21.6487L209.491 20.7112L212.673 20.7064C212.673 20.4886 212.625 20.2957 212.53 20.1278C212.435 19.9598 212.304 19.8286 212.136 19.7342C211.97 19.6374 211.777 19.5891 211.556 19.5895C211.327 19.5898 211.123 19.6434 210.946 19.7502C210.771 19.8546 210.634 19.9957 210.535 20.1734C210.435 20.3487 210.385 20.5441 210.383 20.7595L210.384 21.6509C210.385 21.9208 210.435 22.1539 210.534 22.3502C210.636 22.5466 210.78 22.6979 210.965 22.8041C211.149 22.9104 211.369 22.9633 211.622 22.963C211.79 22.9627 211.944 22.9388 212.083 22.8912C212.223 22.8437 212.342 22.7725 212.442 22.6776C212.541 22.5828 212.617 22.4667 212.669 22.3293L214.068 22.4195C213.997 22.7558 213.852 23.0496 213.632 23.3009C213.415 23.5498 213.133 23.7443 212.788 23.8845C212.445 24.0223 212.048 24.0916 211.599 24.0923ZM215.88 26.0248C215.688 26.0251 215.508 26.01 215.34 25.9794C215.174 25.9513 215.037 25.9148 214.928 25.87L215.267 24.7402C215.445 24.7944 215.605 24.8237 215.747 24.8283C215.891 24.8328 216.015 24.7995 216.119 24.7283C216.226 24.6571 216.312 24.5362 216.378 24.3657L216.466 24.1347L214.501 18.5268L216.092 18.5245L217.228 22.5285L217.284 22.5284L218.418 18.521L220.02 18.5186L217.909 24.5658C217.808 24.8595 217.669 25.1154 217.495 25.3335C217.322 25.5539 217.103 25.7235 216.838 25.8423C216.573 25.9634 216.254 26.0242 215.88 26.0248ZM221.878 23.9704L220.386 18.5181L221.916 18.5158L222.767 22.1793L222.817 22.1792L223.692 18.5131L225.194 18.5109L226.094 22.153L226.14 22.153L226.966 18.5083L228.493 18.506L227.02 23.9627L225.419 23.9651L224.476 20.5361L224.409 20.5362L223.476 23.968L221.878 23.9704ZM231.636 24.0624C231.084 24.0632 230.607 23.9467 230.204 23.713C229.804 23.4768 229.494 23.1482 229.276 22.7271C229.058 22.3037 228.948 21.8126 228.947 21.2539C228.946 20.6905 229.054 20.1979 229.272 19.7761C229.489 19.352 229.797 19.0225 230.197 18.7875C230.599 18.5502 231.076 18.4311 231.628 18.4303C232.179 18.4295 232.655 18.5471 233.056 18.7833C233.458 19.0171 233.769 19.3457 233.988 19.7691C234.206 20.1902 234.316 20.6825 234.316 21.2459C234.317 21.8046 234.209 22.296 233.992 22.7201C233.775 23.1418 233.465 23.4714 233.063 23.7087C232.663 23.9437 232.188 24.0616 231.636 24.0624ZM231.641 22.8905C231.892 22.8901 232.102 22.8188 232.27 22.6765C232.437 22.5318 232.564 22.3352 232.649 22.0865C232.736 21.8377 232.779 21.5548 232.779 21.2375C232.778 20.9203 232.734 20.6375 232.646 20.389C232.561 20.1406 232.434 19.9443 232.265 19.8001C232.097 19.6559 231.887 19.584 231.636 19.5844C231.383 19.5848 231.17 19.6573 230.998 19.802C230.827 19.9466 230.699 20.1433 230.611 20.392C230.526 20.6407 230.484 20.9237 230.485 21.241C230.485 21.5582 230.528 21.841 230.614 22.0895C230.702 22.3379 230.831 22.5342 231.002 22.6784C231.175 22.8202 231.388 22.8909 231.641 22.8905ZM235.304 23.9504L235.296 18.4959L236.763 18.4937L236.764 19.4454L236.821 19.4453C236.92 19.1066 237.086 18.8507 237.32 18.6775C237.555 18.502 237.824 18.414 238.13 18.4135C238.205 18.4134 238.287 18.418 238.375 18.4273C238.462 18.4367 238.539 18.4496 238.606 18.4661L238.608 19.8084C238.537 19.7872 238.438 19.7684 238.313 19.752C238.187 19.7356 238.072 19.7275 237.968 19.7277C237.746 19.728 237.547 19.7768 237.372 19.8742C237.199 19.9691 237.062 20.1019 236.961 20.2725C236.861 20.4431 236.812 20.6397 236.812 20.8622L236.817 23.9481L235.304 23.9504ZM241.152 24.0305C240.738 24.0311 240.362 23.9251 240.026 23.7125C239.692 23.4976 239.426 23.1819 239.229 22.7656C239.034 22.3468 238.936 21.8332 238.936 21.2248C238.935 20.5998 239.034 20.08 239.235 19.6654C239.436 19.2484 239.703 18.9367 240.036 18.7303C240.372 18.5214 240.74 18.4167 241.14 18.4161C241.446 18.4157 241.7 18.4674 241.904 18.5712C242.11 18.6727 242.276 18.8003 242.402 18.954C242.53 19.1053 242.627 19.2543 242.694 19.401L242.74 19.401L242.736 16.6666L244.245 16.6643L244.256 23.9371L242.764 23.9393L242.763 23.0657L242.699 23.0658C242.628 23.2174 242.528 23.3679 242.398 23.5172C242.27 23.6642 242.103 23.7864 241.898 23.8838C241.694 23.9811 241.446 24.03 241.152 24.0305ZM241.63 22.8259C241.874 22.8256 242.079 22.759 242.247 22.6261C242.418 22.4909 242.547 22.3025 242.637 22.0609C242.729 21.8193 242.775 21.5363 242.774 21.212C242.774 20.8877 242.728 20.606 242.638 20.367C242.548 20.128 242.417 19.9436 242.247 19.8136C242.076 19.6837 241.869 19.6189 241.625 19.6192C241.376 19.6196 241.167 19.6874 240.997 19.8226C240.826 19.9578 240.698 20.145 240.61 20.3842C240.523 20.6235 240.48 20.9005 240.48 21.2154C240.481 21.5326 240.525 21.8131 240.613 22.0568C240.703 22.2982 240.833 22.4874 241.001 22.6244C241.172 22.7591 241.381 22.8263 241.63 22.8259ZM250.032 20.0293L248.647 20.1166C248.623 19.9983 248.572 19.8918 248.494 19.7972C248.416 19.7003 248.313 19.6235 248.185 19.5669C248.059 19.5079 247.909 19.4785 247.734 19.4787C247.499 19.4791 247.302 19.5291 247.141 19.6288C246.98 19.7261 246.9 19.8564 246.9 20.0198C246.9 20.15 246.952 20.26 247.057 20.3498C247.161 20.4396 247.34 20.5115 247.593 20.5656L248.581 20.763C249.111 20.8711 249.507 21.0457 249.768 21.2868C250.028 21.5279 250.159 21.8449 250.16 22.2379C250.16 22.5954 250.055 22.9092 249.845 23.1794C249.637 23.4496 249.351 23.6608 248.986 23.8128C248.625 23.9625 248.207 24.0377 247.733 24.0384C247.011 24.0395 246.436 23.89 246.007 23.59C245.58 23.2876 245.33 22.876 245.256 22.3553L246.743 22.275C246.789 22.4951 246.898 22.663 247.071 22.7787C247.244 22.8921 247.465 22.9486 247.735 22.9482C248 22.9478 248.213 22.8966 248.374 22.7946C248.537 22.6901 248.62 22.5563 248.622 22.3929C248.62 22.2556 248.561 22.1432 248.448 22.0558C248.334 21.966 248.159 21.8976 247.922 21.8506L246.977 21.6638C246.444 21.5581 246.047 21.374 245.786 21.1116C245.528 20.8492 245.398 20.5144 245.398 20.1072C245.397 19.7568 245.492 19.4549 245.681 19.2013C245.872 18.9477 246.14 18.7519 246.486 18.6141C246.834 18.4763 247.241 18.407 247.707 18.4063C248.396 18.4053 248.938 18.5501 249.334 18.8407C249.732 19.1313 249.965 19.5275 250.032 20.0293ZM253.172 17.9188L253.17 16.651L259.143 16.6421L259.145 17.9099L256.918 17.9132L256.927 23.9182L255.407 23.9204L255.398 17.9155L253.172 17.9188ZM259.542 23.9143L259.534 18.4597L261.001 18.4576L261.002 19.4093L261.059 19.4092C261.158 19.0705 261.325 18.8146 261.559 18.6414C261.793 18.4658 262.063 18.3778 262.368 18.3774C262.444 18.3773 262.525 18.3819 262.613 18.3912C262.701 18.4006 262.778 18.4135 262.844 18.4299L262.846 19.7723C262.775 19.7511 262.677 19.7323 262.551 19.7159C262.426 19.6995 262.311 19.6914 262.207 19.6916C261.984 19.6919 261.785 19.7407 261.61 19.838C261.438 19.933 261.3 20.0658 261.199 20.2364C261.1 20.407 261.05 20.6036 261.051 20.8261L261.055 23.912L259.542 23.9143ZM265.866 24.0114C265.305 24.0122 264.822 23.8993 264.417 23.6726C264.014 23.4436 263.703 23.1197 263.485 22.701C263.267 22.2799 263.157 21.7818 263.156 21.2065C263.155 20.6454 263.263 20.1528 263.481 19.7287C263.698 19.3046 264.004 18.9739 264.399 18.7366C264.796 18.4992 265.262 18.3802 265.798 18.3794C266.157 18.3788 266.492 18.4364 266.803 18.5519C267.115 18.6651 267.388 18.8363 267.62 19.0656C267.855 19.2949 268.038 19.5834 268.168 19.9313C268.299 20.2767 268.365 20.6814 268.366 21.1454L268.366 21.5609L263.76 21.5678L263.759 20.6303L266.941 20.6256C266.94 20.4078 266.893 20.2149 266.798 20.0469C266.703 19.879 266.571 19.7478 266.403 19.6533C266.237 19.5565 266.044 19.5083 265.824 19.5086C265.594 19.5089 265.391 19.5625 265.213 19.6693C265.038 19.7737 264.901 19.9148 264.802 20.0925C264.703 20.2679 264.652 20.4632 264.65 20.6787L264.652 21.57C264.652 21.8399 264.702 22.073 264.802 22.2694C264.904 22.4657 265.047 22.617 265.232 22.7233C265.417 22.8295 265.636 22.8825 265.889 22.8821C266.058 22.8818 266.211 22.8579 266.351 22.8104C266.491 22.7628 266.61 22.6916 266.709 22.5968C266.809 22.5019 266.884 22.3858 266.936 22.2484L268.335 22.3387C268.265 22.675 268.12 22.9687 267.9 23.22C267.682 23.4689 267.401 23.6635 267.056 23.8037C266.713 23.9415 266.316 24.0107 265.866 24.0114ZM270.865 20.744L270.87 23.8974L269.357 23.8997L269.349 18.4451L270.791 18.443L270.792 19.4053L270.856 19.4052C270.976 19.0878 271.178 18.8366 271.462 18.6515C271.746 18.464 272.09 18.37 272.495 18.3694C272.874 18.3688 273.204 18.4512 273.486 18.6165C273.768 18.7818 273.987 19.0182 274.144 19.3258C274.301 19.6309 274.379 19.9954 274.38 20.4192L274.385 23.8922L272.872 23.8944L272.868 20.6913C272.87 20.3575 272.784 20.0972 272.611 19.9104C272.438 19.7213 272.2 19.6269 271.897 19.6274C271.693 19.6277 271.513 19.6718 271.357 19.7596C271.203 19.8474 271.083 19.9754 270.995 20.1437C270.91 20.3095 270.867 20.5096 270.865 20.744ZM277.588 23.9762C277.173 23.9768 276.798 23.8708 276.461 23.6583C276.127 23.4433 275.862 23.1277 275.665 22.7113C275.47 22.2925 275.372 21.779 275.371 21.1705C275.37 20.5455 275.47 20.0257 275.671 19.6111C275.871 19.1942 276.138 18.8824 276.472 18.676C276.808 18.4671 277.176 18.3624 277.576 18.3618C277.881 18.3614 278.136 18.4131 278.339 18.5169C278.546 18.6184 278.711 18.746 278.837 18.8997C278.965 19.0511 279.063 19.2001 279.129 19.3467L279.175 19.3467L279.171 16.6123L280.68 16.61L280.691 23.8828L279.2 23.885L279.198 23.0114L279.135 23.0115C279.064 23.1631 278.963 23.3136 278.833 23.463C278.706 23.6099 278.539 23.7321 278.333 23.8295C278.13 23.9268 277.881 23.9757 277.588 23.9762ZM278.065 22.7716C278.309 22.7713 278.515 22.7047 278.683 22.5718C278.853 22.4366 278.983 22.2482 279.073 22.0066C279.165 21.765 279.21 21.482 279.21 21.1577C279.209 20.8334 279.164 20.5517 279.074 20.3127C278.983 20.0738 278.853 19.8893 278.682 19.7593C278.512 19.6294 278.304 19.5646 278.06 19.5649C277.812 19.5653 277.602 19.6331 277.432 19.7683C277.262 19.9035 277.133 20.0907 277.046 20.33C276.959 20.5692 276.915 20.8463 276.916 21.1611C276.916 21.4784 276.961 21.7588 277.048 22.0025C277.139 22.2439 277.268 22.4331 277.436 22.5701C277.607 22.7048 277.817 22.772 278.065 22.7716Z" fill="#171A22"/>
<path d="M50 199.98C50.8862 197.2 53.6556 191.64 57.6435 191.64C62.6284 191.64 65.9517 199.98 71.9335 199.98C77.9154 199.98 86.5559 191.64 89.8792 191.64C93.2024 191.64 93.3686 199.98 95.1964 199.98C97.0242 199.98 98.1873 175.793 101.843 176.627C105.498 177.461 105.665 199.98 109.486 199.98C113.308 199.98 131.42 200.814 134.079 191.64C136.737 182.465 137.734 150.771 140.393 150.771C143.051 150.771 143.55 176.627 146.375 176.627C149.199 176.627 148.363 101.317 153.52 91.9071C157.59 84.4809 158.028 67.153 160 49" stroke="#FFB36E" stroke-width="2"/>
<path d="M21.5 205.08C21.072 205.08 20.7074 204.963 20.4062 204.73C20.1051 204.495 19.875 204.155 19.7159 203.71C19.5568 203.263 19.4773 202.723 19.4773 202.091C19.4773 201.462 19.5568 200.925 19.7159 200.48C19.8769 200.033 20.108 199.692 20.4091 199.457C20.7121 199.221 21.0758 199.102 21.5 199.102C21.9242 199.102 22.2869 199.221 22.5881 199.457C22.8911 199.692 23.1222 200.033 23.2812 200.48C23.4422 200.925 23.5227 201.462 23.5227 202.091C23.5227 202.723 23.4432 203.263 23.2841 203.71C23.125 204.155 22.8949 204.495 22.5938 204.73C22.2926 204.963 21.928 205.08 21.5 205.08ZM21.5 204.455C21.9242 204.455 22.2538 204.25 22.4886 203.841C22.7235 203.432 22.8409 202.848 22.8409 202.091C22.8409 201.587 22.7869 201.158 22.679 200.804C22.5729 200.45 22.4195 200.18 22.2188 199.994C22.0199 199.809 21.7803 199.716 21.5 199.716C21.0795 199.716 20.7509 199.923 20.5142 200.338C20.2775 200.751 20.1591 201.335 20.1591 202.091C20.1591 202.595 20.2121 203.023 20.3182 203.375C20.4242 203.727 20.5767 203.995 20.7756 204.179C20.9763 204.363 21.2178 204.455 21.5 204.455Z" fill="#898D9A"/>
<path d="M21.6477 42.4474V48.2656H20.9432V43.1861H20.9091L19.4886 44.1293V43.4134L20.9432 42.4474H21.6477ZM23.4773 48.3111C23.3371 48.3111 23.2169 48.2609 23.1165 48.1605C23.0161 48.0601 22.9659 47.9399 22.9659 47.7997C22.9659 47.6596 23.0161 47.5393 23.1165 47.4389C23.2169 47.3385 23.3371 47.2884 23.4773 47.2884C23.6174 47.2884 23.7377 47.3385 23.8381 47.4389C23.9384 47.5393 23.9886 47.6596 23.9886 47.7997C23.9886 47.8925 23.965 47.9777 23.9176 48.0554C23.8722 48.133 23.8106 48.1955 23.733 48.2429C23.6572 48.2884 23.572 48.3111 23.4773 48.3111ZM25.044 47.0724V46.4929L27.6009 42.4474H28.0213V43.3452H27.7372L25.8054 46.402V46.4474H29.2486V47.0724H25.044ZM27.7827 48.2656V46.8963V46.6264V42.4474H28.4531V48.2656H27.7827ZM30.4155 42.4474H31.2564L33.2337 47.277H33.3018L35.2791 42.4474H36.12V48.2656H35.4609V43.8452H35.4041L33.5859 48.2656H32.9496L31.1314 43.8452H31.0746V48.2656H30.4155V42.4474Z" fill="#898D9A"/>
<path d="M21.6477 82.1818V88H20.9432V82.9205H20.9091L19.4886 83.8636V83.1477L20.9432 82.1818H21.6477ZM23.4773 88.0455C23.3371 88.0455 23.2169 87.9953 23.1165 87.8949C23.0161 87.7945 22.9659 87.6742 22.9659 87.5341C22.9659 87.3939 23.0161 87.2737 23.1165 87.1733C23.2169 87.0729 23.3371 87.0227 23.4773 87.0227C23.6174 87.0227 23.7377 87.0729 23.8381 87.1733C23.9384 87.2737 23.9886 87.3939 23.9886 87.5341C23.9886 87.6269 23.965 87.7121 23.9176 87.7898C23.8722 87.8674 23.8106 87.9299 23.733 87.9773C23.6572 88.0227 23.572 88.0455 23.4773 88.0455ZM26.5305 82.1818V88H25.826V82.9205H25.7919L24.3714 83.8636V83.1477L25.826 82.1818H26.5305ZM28.3061 82.1818H29.147L31.1243 87.0114H31.1925L33.1697 82.1818H34.0107V88H33.3516V83.5795H33.2947L31.4766 88H30.8402L29.022 83.5795H28.9652V88H28.3061V82.1818Z" fill="#898D9A"/>
<path d="M19.7841 128L22.3864 122.852V122.807H19.3864V122.182H23.1136V122.841L20.5227 128H19.7841ZM25.9453 128.08C25.5173 128.08 25.1527 127.963 24.8516 127.73C24.5504 127.495 24.3203 127.155 24.1612 126.71C24.0021 126.263 23.9226 125.723 23.9226 125.091C23.9226 124.462 24.0021 123.925 24.1612 123.48C24.3222 123.033 24.5533 122.692 24.8544 122.457C25.1574 122.221 25.5211 122.102 25.9453 122.102C26.3696 122.102 26.7322 122.221 27.0334 122.457C27.3364 122.692 27.5675 123.033 27.7266 123.48C27.8875 123.925 27.968 124.462 27.968 125.091C27.968 125.723 27.8885 126.263 27.7294 126.71C27.5703 127.155 27.3402 127.495 27.0391 127.73C26.7379 127.963 26.3733 128.08 25.9453 128.08ZM25.9453 127.455C26.3696 127.455 26.6991 127.25 26.9339 126.841C27.1688 126.432 27.2862 125.848 27.2862 125.091C27.2862 124.587 27.2322 124.158 27.1243 123.804C27.0182 123.45 26.8648 123.18 26.6641 122.994C26.4652 122.809 26.2256 122.716 25.9453 122.716C25.5249 122.716 25.1963 122.923 24.9595 123.338C24.7228 123.751 24.6044 124.335 24.6044 125.091C24.6044 125.595 24.6574 126.023 24.7635 126.375C24.8696 126.727 25.022 126.995 25.2209 127.179C25.4216 127.363 25.6631 127.455 25.9453 127.455ZM30.9453 128.08C30.5173 128.08 30.1527 127.963 29.8516 127.73C29.5504 127.495 29.3203 127.155 29.1612 126.71C29.0021 126.263 28.9226 125.723 28.9226 125.091C28.9226 124.462 29.0021 123.925 29.1612 123.48C29.3222 123.033 29.5533 122.692 29.8544 122.457C30.1574 122.221 30.5211 122.102 30.9453 122.102C31.3696 122.102 31.7322 122.221 32.0334 122.457C32.3364 122.692 32.5675 123.033 32.7266 123.48C32.8875 123.925 32.968 124.462 32.968 125.091C32.968 125.723 32.8885 126.263 32.7294 126.71C32.5703 127.155 32.3402 127.495 32.0391 127.73C31.7379 127.963 31.3733 128.08 30.9453 128.08ZM30.9453 127.455C31.3696 127.455 31.6991 127.25 31.9339 126.841C32.1688 126.432 32.2862 125.848 32.2862 125.091C32.2862 124.587 32.2322 124.158 32.1243 123.804C32.0182 123.45 31.8648 123.18 31.6641 122.994C31.4652 122.809 31.2256 122.716 30.9453 122.716C30.5249 122.716 30.1963 122.923 29.9595 123.338C29.7228 123.751 29.6044 124.335 29.6044 125.091C29.6044 125.595 29.6574 126.023 29.7635 126.375C29.8696 126.727 30.022 126.995 30.2209 127.179C30.4216 127.363 30.6631 127.455 30.9453 127.455ZM34.1499 128V122.182H34.8544V125.068H34.9226L37.5362 122.182H38.4567L36.0135 124.807L38.4567 128H37.6044L35.5817 125.295L34.8544 126.114V128H34.1499Z" fill="#898D9A"/>
<path d="M21.5682 168.08C21.1932 168.08 20.8589 168.015 20.5653 167.886C20.2737 167.758 20.0417 167.579 19.8693 167.349C19.6989 167.118 19.6061 166.85 19.5909 166.545H20.3068C20.322 166.733 20.3864 166.895 20.5 167.031C20.6136 167.166 20.7623 167.27 20.946 167.344C21.1297 167.418 21.3333 167.455 21.5568 167.455C21.8068 167.455 22.0284 167.411 22.2216 167.324C22.4148 167.237 22.5663 167.116 22.6761 166.96C22.786 166.805 22.8409 166.625 22.8409 166.42C22.8409 166.206 22.7879 166.018 22.6818 165.855C22.5758 165.69 22.4205 165.562 22.2159 165.469C22.0114 165.376 21.7614 165.33 21.4659 165.33H21V164.705H21.4659C21.697 164.705 21.8996 164.663 22.0739 164.58C22.25 164.496 22.3873 164.379 22.4858 164.227C22.5862 164.076 22.6364 163.898 22.6364 163.693C22.6364 163.496 22.5928 163.325 22.5057 163.179C22.4186 163.033 22.2955 162.92 22.1364 162.838C21.9792 162.757 21.7936 162.716 21.5795 162.716C21.3788 162.716 21.1894 162.753 21.0114 162.827C20.8352 162.899 20.6913 163.004 20.5795 163.142C20.4678 163.278 20.4072 163.443 20.3977 163.636H19.7159C19.7273 163.331 19.8191 163.064 19.9915 162.835C20.1638 162.604 20.3892 162.424 20.6676 162.295C20.9479 162.167 21.2557 162.102 21.5909 162.102C21.9508 162.102 22.2595 162.175 22.517 162.321C22.7746 162.465 22.9725 162.655 23.1108 162.892C23.2491 163.129 23.3182 163.384 23.3182 163.659C23.3182 163.987 23.232 164.266 23.0597 164.497C22.8892 164.728 22.6572 164.888 22.3636 164.977V165.023C22.7311 165.083 23.018 165.24 23.2244 165.491C23.4309 165.741 23.5341 166.051 23.5341 166.42C23.5341 166.737 23.4479 167.021 23.2756 167.273C23.1051 167.523 22.8722 167.72 22.5767 167.864C22.2813 168.008 21.9451 168.08 21.5682 168.08ZM26.5142 168.08C26.1809 168.08 25.8807 168.013 25.6136 167.881C25.3466 167.748 25.1326 167.566 24.9716 167.335C24.8106 167.104 24.7225 166.841 24.7074 166.545H25.3892C25.4157 166.809 25.535 167.027 25.7472 167.199C25.9612 167.369 26.2169 167.455 26.5142 167.455C26.7528 167.455 26.965 167.399 27.1506 167.287C27.3381 167.175 27.4848 167.022 27.5909 166.827C27.6989 166.63 27.7528 166.407 27.7528 166.159C27.7528 165.905 27.697 165.679 27.5852 165.48C27.4754 165.279 27.3239 165.121 27.1307 165.006C26.9375 164.89 26.7169 164.831 26.4688 164.83C26.2907 164.828 26.108 164.855 25.9205 164.912C25.733 164.967 25.5786 165.038 25.4574 165.125L24.7983 165.045L25.1506 162.182H28.1733V162.807H25.7415L25.5369 164.523H25.571C25.6903 164.428 25.84 164.349 26.0199 164.287C26.1998 164.224 26.3873 164.193 26.5824 164.193C26.9384 164.193 27.2557 164.278 27.5341 164.449C27.8144 164.617 28.0341 164.848 28.1932 165.142C28.3542 165.436 28.4347 165.771 28.4347 166.148C28.4347 166.519 28.3513 166.85 28.1847 167.142C28.0199 167.432 27.7926 167.661 27.5028 167.83C27.2131 167.996 26.8835 168.08 26.5142 168.08ZM31.4609 168.08C31.0329 168.08 30.6683 167.963 30.3672 167.73C30.0661 167.495 29.8359 167.155 29.6768 166.71C29.5178 166.263 29.4382 165.723 29.4382 165.091C29.4382 164.462 29.5178 163.925 29.6768 163.48C29.8378 163.033 30.0689 162.692 30.37 162.457C30.6731 162.221 31.0367 162.102 31.4609 162.102C31.8852 162.102 32.2479 162.221 32.549 162.457C32.852 162.692 33.0831 163.033 33.2422 163.48C33.4032 163.925 33.4837 164.462 33.4837 165.091C33.4837 165.723 33.4041 166.263 33.245 166.71C33.0859 167.155 32.8558 167.495 32.5547 167.73C32.2536 167.963 31.889 168.08 31.4609 168.08ZM31.4609 167.455C31.8852 167.455 32.2147 167.25 32.4496 166.841C32.6844 166.432 32.8018 165.848 32.8018 165.091C32.8018 164.587 32.7479 164.158 32.6399 163.804C32.5339 163.45 32.3804 163.18 32.1797 162.994C31.9808 162.809 31.7412 162.716 31.4609 162.716C31.0405 162.716 30.7119 162.923 30.4751 163.338C30.2384 163.751 30.12 164.335 30.12 165.091C30.12 165.595 30.1731 166.023 30.2791 166.375C30.3852 166.727 30.5376 166.995 30.7365 167.179C30.9373 167.363 31.1787 167.455 31.4609 167.455ZM34.6655 168V162.182H35.37V165.068H35.4382L38.0518 162.182H38.9723L36.5291 164.807L38.9723 168H38.12L36.0973 165.295L35.37 166.114V168H34.6655Z" fill="#898D9A"/>
<path d="M204.5 205.08C204.072 205.08 203.707 204.963 203.406 204.73C203.105 204.495 202.875 204.155 202.716 203.71C202.557 203.263 202.477 202.723 202.477 202.091C202.477 201.462 202.557 200.925 202.716 200.48C202.877 200.033 203.108 199.692 203.409 199.457C203.712 199.221 204.076 199.102 204.5 199.102C204.924 199.102 205.287 199.221 205.588 199.457C205.891 199.692 206.122 200.033 206.281 200.48C206.442 200.925 206.523 201.462 206.523 202.091C206.523 202.723 206.443 203.263 206.284 203.71C206.125 204.155 205.895 204.495 205.594 204.73C205.293 204.963 204.928 205.08 204.5 205.08ZM204.5 204.455C204.924 204.455 205.254 204.25 205.489 203.841C205.723 203.432 205.841 202.848 205.841 202.091C205.841 201.587 205.787 201.158 205.679 200.804C205.573 200.45 205.42 200.18 205.219 199.994C205.02 199.809 204.78 199.716 204.5 199.716C204.08 199.716 203.751 199.923 203.514 200.338C203.277 200.751 203.159 201.335 203.159 202.091C203.159 202.595 203.212 203.023 203.318 203.375C203.424 203.727 203.577 203.995 203.776 204.179C203.976 204.363 204.218 204.455 204.5 204.455Z" fill="#898D9A"/>
<path d="M204.648 42.1818V48H203.943V42.9205H203.909L202.489 43.8636V43.1477L203.943 42.1818H204.648ZM208.253 48.0795C208.014 48.0758 207.776 48.0303 207.537 47.9432C207.298 47.8561 207.08 47.7093 206.884 47.5028C206.687 47.2945 206.528 47.0133 206.409 46.6591C206.29 46.303 206.23 45.8561 206.23 45.3182C206.23 44.803 206.278 44.3466 206.375 43.9489C206.472 43.5492 206.612 43.2131 206.795 42.9403C206.979 42.6657 207.201 42.4574 207.46 42.3153C207.722 42.1733 208.016 42.1023 208.344 42.1023C208.67 42.1023 208.959 42.1676 209.213 42.2983C209.469 42.4271 209.677 42.607 209.838 42.8381C209.999 43.0691 210.103 43.3352 210.151 43.6364H209.457C209.393 43.375 209.268 43.1581 209.082 42.9858C208.897 42.8134 208.651 42.7273 208.344 42.7273C207.893 42.7273 207.538 42.9233 207.278 43.3153C207.021 43.7074 206.891 44.2576 206.889 44.9659H206.935C207.041 44.8049 207.167 44.6676 207.312 44.554C207.46 44.4384 207.623 44.3494 207.801 44.2869C207.979 44.2244 208.168 44.1932 208.366 44.1932C208.7 44.1932 209.005 44.2765 209.281 44.4432C209.558 44.608 209.779 44.8362 209.946 45.1278C210.113 45.4176 210.196 45.75 210.196 46.125C210.196 46.4848 210.116 46.8144 209.955 47.1136C209.794 47.411 209.567 47.6477 209.276 47.8239C208.986 47.9981 208.645 48.0833 208.253 48.0795ZM208.253 47.4545C208.491 47.4545 208.705 47.3949 208.895 47.2756C209.086 47.1562 209.237 46.9962 209.347 46.7955C209.458 46.5947 209.514 46.3712 209.514 46.125C209.514 45.8845 209.46 45.6657 209.352 45.4688C209.246 45.2699 209.099 45.1117 208.912 44.9943C208.726 44.8769 208.514 44.8182 208.276 44.8182C208.096 44.8182 207.928 44.8542 207.773 44.9261C207.617 44.9962 207.481 45.0928 207.364 45.2159C207.248 45.339 207.157 45.4801 207.091 45.6392C207.025 45.7964 206.991 45.9621 206.991 46.1364C206.991 46.3674 207.045 46.5833 207.153 46.7841C207.263 46.9848 207.413 47.1468 207.602 47.2699C207.794 47.393 208.01 47.4545 208.253 47.4545ZM213.211 48.0795C212.783 48.0795 212.418 47.9631 212.117 47.7301C211.816 47.4953 211.586 47.1553 211.427 46.7102C211.268 46.2633 211.188 45.7235 211.188 45.0909C211.188 44.4621 211.268 43.9252 211.427 43.4801C211.588 43.0331 211.819 42.6922 212.12 42.4574C212.423 42.2206 212.787 42.1023 213.211 42.1023C213.635 42.1023 213.998 42.2206 214.299 42.4574C214.602 42.6922 214.833 43.0331 214.992 43.4801C215.153 43.9252 215.234 44.4621 215.234 45.0909C215.234 45.7235 215.154 46.2633 214.995 46.7102C214.836 47.1553 214.606 47.4953 214.305 47.7301C214.004 47.9631 213.639 48.0795 213.211 48.0795ZM213.211 47.4545C213.635 47.4545 213.965 47.25 214.2 46.8409C214.434 46.4318 214.552 45.8485 214.552 45.0909C214.552 44.5871 214.498 44.1581 214.39 43.804C214.284 43.4498 214.13 43.1799 213.93 42.9943C213.731 42.8087 213.491 42.7159 213.211 42.7159C212.79 42.7159 212.462 42.9233 212.225 43.3381C211.988 43.7509 211.87 44.3352 211.87 45.0909C211.87 45.5947 211.923 46.0227 212.029 46.375C212.135 46.7273 212.288 46.9953 212.487 47.179C212.687 47.3627 212.929 47.4545 213.211 47.4545ZM216.415 48V42.1818H217.12V45.0682H217.188L219.802 42.1818H220.722L218.279 44.8068L220.722 48H219.87L217.847 45.2955L217.12 46.1136V48H216.415Z" fill="#898D9A"/>
<path d="M204.648 82.1818V88H203.943V82.9205H203.909L202.489 83.8636V83.1477L203.943 82.1818H204.648ZM206.321 88V87.4886L208.241 85.3864C208.467 85.1402 208.652 84.9261 208.798 84.7443C208.944 84.5606 209.052 84.3883 209.122 84.2273C209.194 84.0644 209.23 83.8939 209.23 83.7159C209.23 83.5114 209.181 83.3343 209.082 83.1847C208.986 83.035 208.853 82.9195 208.685 82.8381C208.516 82.7566 208.327 82.7159 208.116 82.7159C207.893 82.7159 207.698 82.7623 207.531 82.8551C207.366 82.946 207.239 83.0739 207.148 83.2386C207.059 83.4034 207.014 83.5966 207.014 83.8182H206.344C206.344 83.4773 206.422 83.178 206.58 82.9205C206.737 82.6629 206.951 82.4621 207.222 82.3182C207.494 82.1742 207.8 82.1023 208.139 82.1023C208.48 82.1023 208.782 82.1742 209.045 82.3182C209.309 82.4621 209.515 82.6562 209.665 82.9006C209.814 83.1449 209.889 83.4167 209.889 83.7159C209.889 83.9299 209.85 84.1392 209.773 84.3438C209.697 84.5464 209.564 84.7727 209.375 85.0227C209.188 85.2708 208.927 85.5739 208.594 85.9318L207.287 87.3295V87.375H209.991V88H206.321ZM213.062 88.0795C212.634 88.0795 212.27 87.9631 211.969 87.7301C211.668 87.4953 211.438 87.1553 211.278 86.7102C211.119 86.2633 211.04 85.7235 211.04 85.0909C211.04 84.4621 211.119 83.9252 211.278 83.4801C211.439 83.0331 211.67 82.6922 211.972 82.4574C212.275 82.2206 212.638 82.1023 213.062 82.1023C213.487 82.1023 213.849 82.2206 214.151 82.4574C214.454 82.6922 214.685 83.0331 214.844 83.4801C215.005 83.9252 215.085 84.4621 215.085 85.0909C215.085 85.7235 215.006 86.2633 214.847 86.7102C214.688 87.1553 214.457 87.4953 214.156 87.7301C213.855 87.9631 213.491 88.0795 213.062 88.0795ZM213.062 87.4545C213.487 87.4545 213.816 87.25 214.051 86.8409C214.286 86.4318 214.403 85.8485 214.403 85.0909C214.403 84.5871 214.349 84.1581 214.241 83.804C214.135 83.4498 213.982 83.1799 213.781 82.9943C213.582 82.8087 213.343 82.7159 213.062 82.7159C212.642 82.7159 212.313 82.9233 212.077 83.3381C211.84 83.7509 211.722 84.3352 211.722 85.0909C211.722 85.5947 211.775 86.0227 211.881 86.375C211.987 86.7273 212.139 86.9953 212.338 87.179C212.539 87.3627 212.78 87.4545 213.062 87.4545ZM216.267 88V82.1818H216.972V85.0682H217.04L219.653 82.1818H220.574L218.131 84.8068L220.574 88H219.722L217.699 85.2955L216.972 86.1136V88H216.267Z" fill="#898D9A"/>
<path d="M204.466 128.08C204.076 128.08 203.731 128.01 203.432 127.872C203.134 127.732 202.902 127.54 202.736 127.295C202.569 127.049 202.487 126.769 202.489 126.455C202.487 126.208 202.535 125.981 202.634 125.773C202.732 125.562 202.866 125.387 203.037 125.247C203.209 125.105 203.402 125.015 203.614 124.977V124.943C203.335 124.871 203.114 124.715 202.949 124.474C202.784 124.232 202.703 123.956 202.705 123.648C202.703 123.352 202.777 123.088 202.929 122.855C203.08 122.622 203.289 122.438 203.554 122.304C203.821 122.17 204.125 122.102 204.466 122.102C204.803 122.102 205.104 122.17 205.369 122.304C205.634 122.438 205.843 122.622 205.994 122.855C206.148 123.088 206.225 123.352 206.227 123.648C206.225 123.956 206.141 124.232 205.974 124.474C205.81 124.715 205.591 124.871 205.318 124.943V124.977C205.528 125.015 205.718 125.105 205.886 125.247C206.055 125.387 206.189 125.562 206.29 125.773C206.39 125.981 206.441 126.208 206.443 126.455C206.441 126.769 206.356 127.049 206.188 127.295C206.021 127.54 205.789 127.732 205.491 127.872C205.196 128.01 204.854 128.08 204.466 128.08ZM204.466 127.455C204.729 127.455 204.956 127.412 205.148 127.327C205.339 127.241 205.487 127.121 205.591 126.966C205.695 126.811 205.748 126.629 205.75 126.42C205.748 126.201 205.691 126.007 205.58 125.838C205.468 125.67 205.315 125.537 205.122 125.44C204.931 125.344 204.712 125.295 204.466 125.295C204.218 125.295 203.996 125.344 203.801 125.44C203.608 125.537 203.455 125.67 203.344 125.838C203.234 126.007 203.18 126.201 203.182 126.42C203.18 126.629 203.23 126.811 203.332 126.966C203.437 127.121 203.585 127.241 203.778 127.327C203.972 127.412 204.201 127.455 204.466 127.455ZM204.466 124.693C204.674 124.693 204.859 124.652 205.02 124.568C205.183 124.485 205.311 124.368 205.403 124.219C205.496 124.069 205.544 123.894 205.545 123.693C205.544 123.496 205.497 123.325 205.406 123.179C205.315 123.031 205.189 122.918 205.028 122.838C204.867 122.757 204.68 122.716 204.466 122.716C204.248 122.716 204.058 122.757 203.895 122.838C203.732 122.918 203.606 123.031 203.517 123.179C203.428 123.325 203.384 123.496 203.386 123.693C203.384 123.894 203.429 124.069 203.52 124.219C203.613 124.368 203.741 124.485 203.903 124.568C204.066 124.652 204.254 124.693 204.466 124.693ZM209.43 128.08C209.002 128.08 208.637 127.963 208.336 127.73C208.035 127.495 207.805 127.155 207.646 126.71C207.487 126.263 207.407 125.723 207.407 125.091C207.407 124.462 207.487 123.925 207.646 123.48C207.807 123.033 208.038 122.692 208.339 122.457C208.642 122.221 209.005 122.102 209.43 122.102C209.854 122.102 210.217 122.221 210.518 122.457C210.821 122.692 211.052 123.033 211.211 123.48C211.372 123.925 211.452 124.462 211.452 125.091C211.452 125.723 211.373 126.263 211.214 126.71C211.055 127.155 210.825 127.495 210.523 127.73C210.222 127.963 209.858 128.08 209.43 128.08ZM209.43 127.455C209.854 127.455 210.183 127.25 210.418 126.841C210.653 126.432 210.771 125.848 210.771 125.091C210.771 124.587 210.717 124.158 210.609 123.804C210.503 123.45 210.349 123.18 210.148 122.994C209.95 122.809 209.71 122.716 209.43 122.716C209.009 122.716 208.681 122.923 208.444 123.338C208.207 123.751 208.089 124.335 208.089 125.091C208.089 125.595 208.142 126.023 208.248 126.375C208.354 126.727 208.506 126.995 208.705 127.179C208.906 127.363 209.147 127.455 209.43 127.455ZM212.634 128V122.182H213.339V125.068H213.407L216.021 122.182H216.941L214.498 124.807L216.941 128H216.089L214.066 125.295L213.339 126.114V128H212.634Z" fill="#898D9A"/>
<path d="M202.466 166.807V166.227L205.023 162.182H205.443V163.08H205.159L203.227 166.136V166.182H206.67V166.807H202.466ZM205.205 168V166.631V166.361V162.182H205.875V168H205.205ZM209.633 168.08C209.205 168.08 208.84 167.963 208.539 167.73C208.238 167.495 208.008 167.155 207.849 166.71C207.69 166.263 207.61 165.723 207.61 165.091C207.61 164.462 207.69 163.925 207.849 163.48C208.01 163.033 208.241 162.692 208.542 162.457C208.845 162.221 209.209 162.102 209.633 162.102C210.057 162.102 210.42 162.221 210.721 162.457C211.024 162.692 211.255 163.033 211.414 163.48C211.575 163.925 211.656 164.462 211.656 165.091C211.656 165.723 211.576 166.263 211.417 166.71C211.258 167.155 211.028 167.495 210.727 167.73C210.425 167.963 210.061 168.08 209.633 168.08ZM209.633 167.455C210.057 167.455 210.387 167.25 210.621 166.841C210.856 166.432 210.974 165.848 210.974 165.091C210.974 164.587 210.92 164.158 210.812 163.804C210.706 163.45 210.552 163.18 210.352 162.994C210.153 162.809 209.913 162.716 209.633 162.716C209.212 162.716 208.884 162.923 208.647 163.338C208.41 163.751 208.292 164.335 208.292 165.091C208.292 165.595 208.345 166.023 208.451 166.375C208.557 166.727 208.71 166.995 208.908 167.179C209.109 167.363 209.351 167.455 209.633 167.455ZM212.837 168V162.182H213.542V165.068H213.61L216.224 162.182H217.144L214.701 164.807L217.144 168H216.292L214.269 165.295L213.542 166.114V168H212.837Z" fill="#898D9A"/>
<path d="M341.52 79.6035C343.111 76.9497 347.97 65.0595 352 51V204H233V124.386C234.282 124.386 237.404 125.547 239.633 130.191C242.419 135.997 246.664 167.51 248.389 171.657C250.114 175.803 255.288 167.51 257.808 161.705C260.329 155.9 263.115 130.191 265.768 124.386C268.421 118.581 269.217 123.557 274.657 124.386C280.096 125.216 280.494 95.3604 282.882 87.0673C285.27 78.7742 288.188 87.0673 290.178 87.0673C292.168 87.0673 292.699 69.6519 295.22 69.6519C297.74 69.6519 303.577 79.6035 305.567 79.6035C307.557 79.6035 310.343 63.8467 312.599 69.6519C314.854 75.457 319.763 105.312 322.283 119.41C324.804 133.509 328.12 125.216 331.039 119.41C333.958 113.605 339.53 82.9207 341.52 79.6035Z" fill="#C1EAFF"/>
<path d="M341.363 140.464C343.916 139.126 348.918 122.124 352 111.373V204H233V165.544H238.983C242.041 165.544 245.498 183.936 247.759 188.116C250.019 192.296 252.811 188.116 256.135 183.936C259.459 179.756 259.725 170.56 264.778 161.364C269.83 152.168 275.282 160.528 278.074 158.02C280.866 155.512 282.727 144.644 284.057 140.464C285.387 136.284 288.312 140.464 289.375 140.464C290.439 140.464 293.231 137.12 296.289 137.12C299.347 137.12 302.804 144.644 304.134 144.644C305.464 144.644 307.591 140.464 309.718 137.12C311.846 133.776 313.707 140.464 316.234 140.464C318.76 140.464 321.02 164.708 325.541 164.708C330.061 164.708 338.172 142.136 341.363 140.464Z" fill="#DDC1FF"/>
<path d="M352 111.373C349.155 121.297 345.423 134.703 341.363 140.406C337.303 146.108 330.061 164.318 325.541 164.318C321.02 164.318 318.76 140.406 316.234 140.406C313.707 140.406 311.846 133.809 309.718 137.107C307.591 140.406 305.464 144.529 304.134 144.529C302.804 144.529 299.347 137.107 296.289 137.107C293.231 137.107 290.439 140.406 289.375 140.406C288.312 140.406 285.387 136.283 284.057 140.406C282.727 144.529 280.866 155.248 278.074 157.722C275.282 160.195 269.83 151.95 264.778 161.02C259.725 170.09 259.459 179.16 256.135 183.283C252.811 187.406 250.019 191.529 247.759 187.406C245.498 183.283 242.041 165.143 238.983 165.143C236.537 165.143 233.975 165.143 233 165.143" stroke="#B880FF" stroke-width="2" stroke-linecap="round" stroke-linejoin="round"/>
<path d="M352 51.8271C348.681 63.4056 343.111 76.9332 341.52 79.5818C339.53 82.8926 333.958 113.518 331.039 119.311C328.12 125.105 324.804 133.382 322.283 119.311C319.763 105.241 314.854 75.4434 312.599 69.6495C310.343 63.8556 307.557 79.5818 305.567 79.5818C303.577 79.5818 297.74 69.6495 295.22 69.6495C292.699 69.6495 292.168 87.0311 290.178 87.0311C288.188 87.0311 285.27 78.7541 282.882 87.0311C280.494 95.3081 280.096 125.105 274.657 124.278C269.217 123.45 268.421 118.484 265.768 124.278C263.115 130.072 260.329 155.73 257.808 161.524C255.288 167.318 250.114 175.595 248.389 171.456C246.664 167.318 242.419 135.865 239.633 130.071C237.404 125.436 234.282 124.278 233 124.278" stroke="#00A8FF" stroke-width="2" stroke-linecap="round" stroke-linejoin="round"/>
</svg>
