<svg width="373" height="225" viewBox="0 0 373 225" fill="none" xmlns="http://www.w3.org/2000/svg">
<path d="M0 6.51428C0 2.91654 2.91655 0 6.51429 0H366.486C370.083 0 373 2.91655 373 6.51429V218.486C373 222.083 370.083 225 366.486 225H6.51429C2.91655 225 0 222.083 0 218.486V6.51428Z" fill="white"/>
<path d="M25.0009 26.7246L26.7669 32.2476L26.8344 32.2475L28.5875 26.7193L30.2921 26.7167L27.7958 33.9932L25.8143 33.9961L23.2928 26.7272L25.0009 26.7246ZM31.1498 33.9882L31.1417 28.5337L32.6545 28.5314L32.6626 33.9859L31.1498 33.9882ZM31.9006 27.8294C31.6757 27.8297 31.4826 27.7554 31.3214 27.6065C31.1626 27.4553 31.083 27.2743 31.0827 27.0636C31.0824 26.8552 31.1614 26.6764 31.3198 26.527C31.4806 26.3752 31.6734 26.2992 31.8983 26.2989C32.1232 26.2985 32.3151 26.374 32.474 26.5253C32.6352 26.6742 32.7159 26.8528 32.7162 27.0611C32.7165 27.2718 32.6363 27.4531 32.4756 27.6048C32.3172 27.7542 32.1255 27.8291 31.9006 27.8294ZM38.407 30.0782L37.0222 30.1655C36.9983 30.0472 36.9473 29.9407 36.869 29.8461C36.7907 29.7492 36.6876 29.6724 36.5597 29.6158C36.4341 29.5568 36.2838 29.5274 36.1086 29.5277C35.8742 29.528 35.6766 29.578 35.5158 29.6777C35.3549 29.775 35.2746 29.9053 35.2749 30.0687C35.2751 30.1989 35.3273 30.3089 35.4316 30.3987C35.5359 30.4885 35.7148 30.5605 35.9682 30.6145L36.9557 30.8119C37.4861 30.92 37.8818 31.0946 38.1425 31.3357C38.4033 31.5768 38.534 31.8939 38.5346 32.2869C38.5351 32.6443 38.4302 32.9582 38.2199 33.2284C38.012 33.4986 37.7259 33.7097 37.3615 33.8618C36.9995 34.0114 36.5818 34.0866 36.1083 34.0873C35.3862 34.0884 34.8107 33.9389 34.3818 33.6389C33.9552 33.3365 33.7048 32.925 33.6306 32.4042L35.1184 32.3239C35.1637 32.544 35.2729 32.7119 35.4459 32.8277C35.6189 32.9411 35.8403 32.9975 36.1102 32.9971C36.3754 32.9967 36.5883 32.9455 36.7492 32.8435C36.9124 32.7391 36.995 32.6052 36.9972 32.4418C36.9946 32.3045 36.9364 32.1922 36.8227 32.1047C36.7089 32.0149 36.5336 31.9466 36.2968 31.8996L35.3519 31.7128C34.8191 31.607 34.4222 31.4229 34.1614 31.1606C33.903 30.8982 33.7735 30.5634 33.7729 30.1562C33.7723 29.8058 33.8666 29.5038 34.0556 29.2502C34.247 28.9966 34.5154 28.8009 34.8608 28.6631C35.2087 28.5252 35.6157 28.456 36.0821 28.4553C36.771 28.4542 37.3134 28.599 37.7092 28.8896C38.1074 29.1802 38.34 29.5764 38.407 30.0782ZM39.4897 33.9758L39.4816 28.5212L40.9943 28.519L41.0025 33.9735L39.4897 33.9758ZM40.2405 27.817C40.0155 27.8173 39.8225 27.743 39.6613 27.5941C39.5024 27.4428 39.4229 27.2618 39.4226 27.0511C39.4222 26.8428 39.5013 26.6639 39.6597 26.5146C39.8204 26.3628 40.0133 26.2868 40.2382 26.2864C40.4631 26.2861 40.655 26.3616 40.8138 26.5128C40.975 26.6618 41.0558 26.8404 41.0561 27.0487C41.0564 27.2594 40.9762 27.4406 40.8154 27.5924C40.657 27.7418 40.4654 27.8166 40.2405 27.817ZM45.1074 28.5128L45.1091 29.6492L41.8243 29.6541L41.8226 28.5177L45.1074 28.5128ZM42.5664 27.2098L44.0792 27.2076L44.0868 32.2928C44.087 32.4325 44.1085 32.5413 44.1512 32.6194C44.1939 32.6951 44.2532 32.7483 44.329 32.7789C44.4072 32.8096 44.4972 32.8248 44.599 32.8247C44.67 32.8246 44.741 32.8186 44.812 32.8066C44.883 32.7923 44.9374 32.7816 44.9753 32.7744L45.2149 33.8998C45.1392 33.9236 45.0327 33.9509 44.8954 33.9819C44.7582 34.0153 44.5913 34.0356 44.3948 34.043C44.0302 34.0578 43.7106 34.0097 43.4358 33.8989C43.1634 33.788 42.9512 33.6155 42.7994 33.3814C42.6475 33.1472 42.5725 32.8514 42.5743 32.4939L42.5664 27.2098ZM48.5071 34.0689C47.9555 34.0697 47.4782 33.9532 47.0754 33.7194C46.675 33.4833 46.3656 33.1547 46.1471 32.7336C45.9287 32.3102 45.8191 31.8191 45.8182 31.2604C45.8174 30.6969 45.9255 30.2043 46.1427 29.7826C46.3599 29.3585 46.6684 29.029 47.0681 28.794C47.4702 28.5567 47.9471 28.4376 48.4987 28.4368C49.0503 28.4359 49.5263 28.5536 49.9268 28.7898C50.3296 29.0235 50.6402 29.3521 50.8586 29.7756C51.0771 30.1967 51.1867 30.6889 51.1875 31.2524C51.1884 31.8111 51.0802 32.3025 50.863 32.7266C50.6459 33.1483 50.3362 33.4778 49.9341 33.7152C49.5344 33.9502 49.0587 34.068 48.5071 34.0689ZM48.5124 32.897C48.7634 32.8966 48.9728 32.8253 49.1407 32.683C49.3085 32.5383 49.4349 32.3416 49.5198 32.0929C49.607 31.8442 49.6504 31.5612 49.6499 31.244C49.6494 30.9268 49.6052 30.6439 49.5172 30.3955C49.4316 30.147 49.3047 29.9507 49.1364 29.8066C48.9681 29.6624 48.7584 29.5905 48.5075 29.5909C48.2542 29.5913 48.0412 29.6638 47.8686 29.8084C47.6984 29.9531 47.5696 30.1498 47.4824 30.3985C47.3976 30.6472 47.3554 30.9302 47.3558 31.2474C47.3563 31.5647 47.3994 31.8475 47.485 32.096C47.5729 32.3444 47.7022 32.5407 47.8729 32.6849C48.0459 32.8267 48.2591 32.8974 48.5124 32.897ZM52.1752 33.9569L52.1671 28.5023L53.6337 28.5001L53.6351 29.4518L53.692 29.4518C53.7909 29.1131 53.9574 28.8571 54.1915 28.684C54.4256 28.5084 54.6954 28.4204 55.0008 28.42C55.0766 28.4199 55.1582 28.4245 55.2458 28.4338C55.3335 28.4432 55.4104 28.4561 55.4767 28.4725L55.4787 29.8149C55.4077 29.7937 55.3094 29.7749 55.1839 29.7585C55.0584 29.7421 54.9436 29.734 54.8394 29.7341C54.6169 29.7345 54.4181 29.7833 54.243 29.8806C54.0703 29.9756 53.9332 30.1084 53.8317 30.279C53.7325 30.4496 53.6831 30.6461 53.6834 30.8687L53.688 33.9546L52.1752 33.9569ZM60.7996 30.0449L59.4148 30.1322C59.3909 30.0138 59.3398 29.9074 59.2616 29.8128C59.1833 29.7158 59.0802 29.639 58.9523 29.5824C58.8267 29.5234 58.6764 29.494 58.5012 29.4943C58.2668 29.4947 58.0692 29.5447 57.9083 29.6443C57.7475 29.7416 57.6672 29.872 57.6674 30.0353C57.6676 30.1655 57.7199 30.2755 57.8242 30.3653C57.9285 30.4552 58.1073 30.5271 58.3607 30.5812L59.3482 30.7786C59.8787 30.8867 60.2743 31.0613 60.5351 31.3024C60.7959 31.5435 60.9266 31.8605 60.9272 32.2535C60.9277 32.611 60.8228 32.9248 60.6125 33.195C60.4046 33.4652 60.1184 33.6763 59.7541 33.8284C59.3921 33.9781 58.9743 34.0533 58.5009 34.054C57.7788 34.0551 57.2033 33.9056 56.7743 33.6056C56.3477 33.3032 56.0974 32.8916 56.0232 32.3709L57.511 32.2905C57.5563 32.5106 57.6655 32.6786 57.8385 32.7943C58.0115 32.9077 58.2329 32.9642 58.5028 32.9638C58.7679 32.9634 58.9809 32.9122 59.1418 32.8101C59.305 32.7057 59.3876 32.5718 59.3897 32.4085C59.3872 32.2712 59.329 32.1588 59.2152 32.0714C59.1015 31.9816 58.9262 31.9132 58.6894 31.8662L57.7445 31.6794C57.2116 31.5737 56.8148 31.3896 56.554 31.1272C56.2956 30.8648 56.1661 30.53 56.1654 30.1228C56.1649 29.7724 56.2592 29.4704 56.4482 29.2168C56.6396 28.9632 56.908 28.7675 57.2534 28.6297C57.6012 28.4919 58.0083 28.4226 58.4747 28.4219C59.1636 28.4209 59.706 28.5657 60.1018 28.8563C60.4999 29.1469 60.7325 29.5431 60.7996 30.0449ZM70.9029 30.2926C70.9041 31.0857 70.7548 31.7606 70.455 32.3174C70.1575 32.8742 69.7509 33.2998 69.2353 33.5941C68.722 33.8861 68.1445 34.0325 67.503 34.0335C66.8567 34.0344 66.2764 33.8885 65.7623 33.5957C65.2481 33.3029 64.8414 32.8786 64.5423 32.3227C64.2432 31.7668 64.093 31.0935 64.0919 30.3027C64.0907 29.5097 64.2388 28.8347 64.5363 28.2779C64.8338 27.7211 65.2391 27.2968 65.7524 27.0048C66.2657 26.7105 66.8455 26.5628 67.4918 26.5619C68.1334 26.5609 68.7113 26.7068 69.2255 26.9996C69.742 27.2901 70.1498 27.7132 70.4489 28.2691C70.7504 28.825 70.9018 29.4995 70.9029 30.2926ZM69.344 30.2949C69.3432 29.7812 69.2656 29.3481 69.1112 28.9955C68.9592 28.643 68.7445 28.3758 68.4673 28.1939C68.19 28.0121 67.8656 27.9214 67.4939 27.922C67.1222 27.9225 66.798 28.0141 66.5213 28.1968C66.2445 28.3796 66.0295 28.6474 65.8762 29.0004C65.7252 29.3533 65.6501 29.7867 65.6508 30.3004C65.6516 30.8142 65.728 31.2473 65.88 31.5998C66.0344 31.9523 66.2503 32.2195 66.5275 32.4014C66.8048 32.5833 67.1293 32.6739 67.5009 32.6734C67.8726 32.6728 68.1968 32.5812 68.4736 32.3985C68.7503 32.2158 68.9641 31.9479 69.1151 31.595C69.2685 31.242 69.3448 30.8086 69.344 30.2949ZM77.0961 28.4652L75.1973 33.9226L73.4927 33.9251L71.5776 28.4734L73.1756 28.471L74.3143 32.372L74.3711 32.3719L75.4945 28.4676L77.0961 28.4652ZM80.1885 34.0217C79.6275 34.0225 79.1443 33.9096 78.7392 33.6829C78.3364 33.4539 78.0257 33.13 77.8073 32.7113C77.5889 32.2902 77.4792 31.792 77.4784 31.2167C77.4775 30.6557 77.5857 30.1631 77.8029 29.739C78.0201 29.3149 78.3261 28.9842 78.7212 28.7469C79.1185 28.5095 79.5847 28.3905 80.1198 28.3897C80.4796 28.3891 80.8147 28.4466 81.125 28.5622C81.4377 28.6753 81.7102 28.8466 81.9425 29.0759C82.1772 29.3052 82.36 29.5937 82.4907 29.9415C82.6214 30.287 82.6871 30.6917 82.6878 31.1557L82.6884 31.5712L78.0826 31.5781L78.0812 30.6406L81.263 30.6358C81.2627 30.418 81.2151 30.2251 81.1201 30.0572C81.0252 29.8893 80.8936 29.7581 80.7254 29.6636C80.5595 29.5668 80.3665 29.5185 80.1463 29.5189C79.9167 29.5192 79.7132 29.5728 79.5358 29.6796C79.3607 29.784 79.2236 29.9251 79.1245 30.1028C79.0253 30.2781 78.9747 30.4735 78.9726 30.689L78.974 31.5803C78.9744 31.8502 79.0244 32.0833 79.1241 32.2796C79.2262 32.476 79.3697 32.6273 79.5545 32.7335C79.7393 32.8398 79.9584 32.8927 80.2117 32.8924C80.3798 32.8921 80.5336 32.8682 80.6732 32.8207C80.8129 32.7731 80.9323 32.7019 81.0316 32.6071C81.1309 32.5122 81.2065 32.3961 81.2584 32.2587L82.6576 32.3489C82.5871 32.6852 82.442 32.979 82.2222 33.2303C82.0047 33.4792 81.7233 33.6737 81.3779 33.8139C81.0348 33.9517 80.6383 34.021 80.1885 34.0217ZM83.6791 33.9099L83.671 28.4554L85.1376 28.4532L85.1391 29.4049L85.1959 29.4048C85.2948 29.0661 85.4613 28.8102 85.6954 28.637C85.9295 28.4615 86.1993 28.3735 86.5047 28.373C86.5805 28.3729 86.6621 28.3775 86.7498 28.3869C86.8374 28.3962 86.9143 28.4091 86.9806 28.4256L86.9826 29.7679C86.9116 29.7467 86.8133 29.7279 86.6878 29.7115C86.5623 29.6952 86.4475 29.687 86.3433 29.6872C86.1208 29.6875 85.922 29.7364 85.7469 29.8337C85.5743 29.9286 85.4371 30.0614 85.3356 30.232C85.2364 30.4026 85.187 30.5992 85.1873 30.8217L85.1919 33.9077L83.6791 33.9099ZM93.0141 28.4415L91.1152 33.8989L89.4107 33.9014L87.4956 28.4497L89.0936 28.4473L90.2322 32.3483L90.289 32.3482L91.4125 28.4438L93.0141 28.4415ZM93.7963 33.8949L93.7882 28.4403L95.301 28.4381L95.3091 33.8926L93.7963 33.8949ZM94.5471 27.7361C94.3222 27.7364 94.1291 27.6621 93.9679 27.5132C93.8091 27.3619 93.7295 27.1809 93.7292 26.9702C93.7289 26.7619 93.8079 26.583 93.9663 26.4336C94.1271 26.2819 94.3199 26.2058 94.5448 26.2055C94.7697 26.2052 94.9616 26.2806 95.1204 26.4319C95.2816 26.5808 95.3624 26.7595 95.3627 26.9678C95.363 27.1785 95.2828 27.3597 95.122 27.5115C94.9637 27.6609 94.772 27.7357 94.5471 27.7361ZM99.0069 33.9936C98.4458 33.9945 97.9627 33.8815 97.5575 33.6549C97.1547 33.4258 96.8441 33.102 96.6257 32.6833C96.4072 32.2622 96.2976 31.764 96.2967 31.1887C96.2959 30.6276 96.4041 30.135 96.6212 29.7109C96.8384 29.2869 97.1445 28.9561 97.5395 28.7188C97.9369 28.4815 98.4031 28.3624 98.9381 28.3616C99.298 28.3611 99.6331 28.4186 99.9434 28.5341C100.256 28.6473 100.529 28.8185 100.761 29.0478C100.996 29.2771 101.178 29.5657 101.309 29.9135C101.44 30.2589 101.505 30.6637 101.506 31.1277L101.507 31.5432L96.901 31.55L96.8996 30.6125L100.081 30.6078C100.081 30.39 100.033 30.1971 99.9385 30.0292C99.8435 29.8612 99.712 29.73 99.5437 29.6356C99.3779 29.5388 99.1848 29.4905 98.9647 29.4908C98.735 29.4912 98.5315 29.5448 98.3541 29.6515C98.1791 29.756 98.042 29.897 97.9428 30.0747C97.8436 30.2501 97.793 30.4455 97.791 30.6609L97.7923 31.5522C97.7927 31.8221 97.8428 32.0553 97.9425 32.2516C98.0446 32.4479 98.1881 32.5992 98.3729 32.7055C98.5577 32.8118 98.7768 32.8647 99.0301 32.8643C99.1982 32.8641 99.352 32.8402 99.4916 32.7926C99.6312 32.7451 99.7507 32.6739 99.85 32.579C99.9492 32.4842 100.025 32.3681 100.077 32.2307L101.476 32.3209C101.405 32.6572 101.26 32.951 101.041 33.2022C100.823 33.4511 100.542 33.6457 100.196 33.7859C99.8531 33.9237 99.4567 33.993 99.0069 33.9936ZM103.534 33.8803L102.042 28.428L103.572 28.4257L104.423 32.0892L104.473 32.0892L105.348 28.4231L106.85 28.4208L107.75 32.063L107.797 32.0629L108.622 28.4182L110.149 28.4159L108.676 33.8727L107.075 33.8751L106.132 30.4461L106.065 30.4462L105.132 33.878L103.534 33.8803Z" fill="#171A22"/>
<path d="M343.362 180.875V71.6251L318.964 92.0978L295.337 90.6611L271.196 108.26L246.798 122.268L223.427 115.444L199.029 106.105L175.145 111.493L151.518 106.105L127.12 122.268H102.979L79.3513 132.138L55.2102 125.501L31.9873 146.04V180.875H343.362Z" fill="#C1EAFF"/>
<rect x="23.0508" y="63.4507" width="326.358" height="0.443034" fill="#E9EBEF"/>
<rect x="23.0508" y="108.321" width="326.358" height="0.443034" fill="#E9EBEF"/>
<rect x="31.251" y="153.875" width="90.379" height="0.540328" transform="rotate(-90 31.251 153.875)" fill="#E9EBEF"/>
<rect x="92.2129" y="153.875" width="90.379" height="0.540328" transform="rotate(-90 92.2129 153.875)" fill="#E9EBEF"/>
<rect x="153.27" y="153.875" width="90.379" height="0.540328" transform="rotate(-90 153.27 153.875)" fill="#E9EBEF"/>
<rect x="214.327" y="153.875" width="90.379" height="0.540328" transform="rotate(-90 214.327 153.875)" fill="#E9EBEF"/>
<rect x="275.384" y="153.875" width="90.379" height="0.540328" transform="rotate(-90 275.384 153.875)" fill="#E9EBEF"/>
<rect x="336.441" y="153.875" width="90.379" height="0.540328" transform="rotate(-90 336.441 153.875)" fill="#E9EBEF"/>
<rect x="23.0508" y="153.188" width="326.358" height="0.443034" fill="#E9EBEF"/>
<path d="M30.8125 148L55.2104 124.782L79.3515 132.406L102.979 121.663H127.12L151.518 106.068L175.145 111.267L199.03 106.068L223.428 115.079L246.798 121.663L271.196 108.148L295.337 91.167L318.965 92.5532L343.362 72.8002" stroke="#00A8FF" stroke-width="1.62099"/>
<circle cx="30.8129" cy="148" r="2.62016" fill="#00A8FF" stroke="white" stroke-width="0.540328"/>
<circle cx="55.4877" cy="124.5" r="2.62016" fill="#00A8FF" stroke="white" stroke-width="0.540328"/>
<circle cx="80.1625" cy="131.55" r="2.62016" fill="#00A8FF" stroke="white" stroke-width="0.540328"/>
<circle cx="103.662" cy="120.975" r="2.62016" fill="#00A8FF" stroke="white" stroke-width="0.540328"/>
<circle cx="127.162" cy="120.975" r="2.62016" fill="#00A8FF" stroke="white" stroke-width="0.540328"/>
<circle cx="151.837" cy="105.7" r="2.62016" fill="#00A8FF" stroke="white" stroke-width="0.540328"/>
<circle cx="175.337" cy="110.4" r="2.62016" fill="#00A8FF" stroke="white" stroke-width="0.540328"/>
<circle cx="198.837" cy="105.7" r="2.62016" fill="#00A8FF" stroke="white" stroke-width="0.540328"/>
<circle cx="224.688" cy="115.1" r="2.62016" fill="#00A8FF" stroke="white" stroke-width="0.540328"/>
<circle cx="245.837" cy="120.975" r="2.62016" fill="#00A8FF" stroke="white" stroke-width="0.540328"/>
<circle cx="271.688" cy="108.05" r="2.62016" fill="#00A8FF" stroke="white" stroke-width="0.540328"/>
<circle cx="295.188" cy="91.6001" r="2.62016" fill="#00A8FF" stroke="white" stroke-width="0.540328"/>
<circle cx="318.688" cy="91.6001" r="2.62016" fill="#00A8FF" stroke="white" stroke-width="0.540328"/>
<circle cx="343.363" cy="72.8002" r="2.62016" fill="#00A8FF" stroke="white" stroke-width="0.540328"/>
<path d="M286.427 28.0884L287.944 28.0862L289.553 31.9929L289.621 31.9928L291.217 28.0813L292.734 28.079L292.743 33.8972L291.55 33.899L291.544 30.1121L291.496 30.1121L289.996 33.8729L289.183 33.8741L287.672 30.1036L287.624 30.1037L287.629 33.9049L286.436 33.9066L286.427 28.0884ZM294.978 33.9763C294.7 33.9767 294.452 33.9288 294.234 33.8325C294.016 33.7343 293.843 33.5897 293.716 33.3986C293.591 33.2056 293.528 32.9652 293.527 32.6773C293.527 32.4349 293.571 32.2312 293.66 32.0663C293.749 31.9014 293.87 31.7687 294.023 31.668C294.176 31.5674 294.35 31.4914 294.545 31.44C294.742 31.3886 294.949 31.3523 295.165 31.3311C295.418 31.3042 295.623 31.2793 295.778 31.2563C295.933 31.2315 296.046 31.1953 296.116 31.1479C296.186 31.1004 296.221 31.0303 296.221 30.9375L296.221 30.9205C296.22 30.7405 296.163 30.6014 296.05 30.5031C295.938 30.4048 295.779 30.3558 295.572 30.3561C295.354 30.3564 295.181 30.405 295.052 30.5017C294.924 30.5966 294.839 30.7161 294.797 30.8601L293.678 30.7708C293.734 30.5056 293.846 30.2763 294.012 30.0828C294.178 29.8875 294.393 29.7376 294.656 29.633C294.921 29.5266 295.228 29.4731 295.577 29.4725C295.819 29.4722 296.051 29.5002 296.273 29.5567C296.496 29.6132 296.694 29.701 296.867 29.8201C297.041 29.9391 297.179 30.0923 297.279 30.2797C297.38 30.4651 297.431 30.6876 297.431 30.9471L297.435 33.8902L296.288 33.8919L296.287 33.2868L296.253 33.2869C296.183 33.4234 296.089 33.5438 295.972 33.6481C295.855 33.7505 295.714 33.8313 295.549 33.8902C295.384 33.9473 295.194 33.976 294.978 33.9763ZM295.323 33.1405C295.501 33.1403 295.659 33.105 295.795 33.0347C295.931 32.9626 296.038 32.8658 296.115 32.7445C296.193 32.6231 296.232 32.4858 296.231 32.3324L296.231 31.8693C296.193 31.894 296.141 31.9168 296.075 31.9377C296.01 31.9568 295.937 31.9749 295.856 31.992C295.774 32.0073 295.693 32.0216 295.612 32.035C295.53 32.0465 295.456 32.057 295.39 32.0666C295.248 32.0876 295.124 32.121 295.018 32.1666C294.912 32.2122 294.83 32.2739 294.771 32.3516C294.713 32.4274 294.683 32.5222 294.684 32.6358C294.684 32.8006 294.744 32.9264 294.863 33.0134C294.984 33.0984 295.138 33.1408 295.323 33.1405ZM298.374 33.8888L298.368 29.5252L299.541 29.5235L299.542 30.2848L299.588 30.2848C299.667 30.0138 299.8 29.8091 299.987 29.6705C300.175 29.5301 300.39 29.4597 300.635 29.4593C300.695 29.4592 300.761 29.4629 300.831 29.4704C300.901 29.4779 300.962 29.4882 301.015 29.5014L301.017 30.5752C300.96 30.5583 300.882 30.5432 300.781 30.5301C300.681 30.517 300.589 30.5105 300.506 30.5107C300.328 30.5109 300.169 30.55 300.029 30.6278C299.89 30.7038 299.781 30.81 299.699 30.9465C299.62 31.083 299.581 31.2403 299.581 31.4183L299.585 33.887L298.374 33.8888ZM303.416 33.9666C302.969 33.9672 302.585 33.8731 302.262 33.6842C301.942 33.4934 301.696 33.2286 301.523 32.8898C301.352 32.5511 301.266 32.161 301.265 31.7198C301.265 31.2728 301.35 30.8806 301.522 30.5432C301.696 30.204 301.943 29.9394 302.262 29.7495C302.582 29.5578 302.963 29.4615 303.404 29.4609C303.785 29.4603 304.118 29.5289 304.404 29.6668C304.69 29.8046 304.917 29.9984 305.084 30.2482C305.251 30.4979 305.343 30.7913 305.361 31.1284L304.219 31.1301C304.186 30.9124 304.101 30.7373 303.962 30.6049C303.826 30.4707 303.647 30.4037 303.425 30.404C303.238 30.4043 303.074 30.4557 302.934 30.5582C302.796 30.6588 302.688 30.8057 302.611 30.999C302.533 31.1923 302.495 31.4263 302.495 31.7009C302.496 31.9793 302.534 32.216 302.61 32.4109C302.688 32.6059 302.797 32.7544 302.937 32.8565C303.078 32.9585 303.242 33.0094 303.429 33.0091C303.567 33.0089 303.691 32.9803 303.801 32.9234C303.913 32.8664 304.005 32.7839 304.076 32.6758C304.15 32.5658 304.198 32.4341 304.221 32.2807L305.363 32.279C305.344 32.6124 305.254 32.906 305.091 33.1601C304.931 33.4122 304.708 33.6095 304.425 33.752C304.141 33.8945 303.805 33.966 303.416 33.9666ZM307.346 31.3527L307.35 33.8755L306.14 33.8773L306.131 28.0591L307.307 28.0573L307.311 30.2818L307.362 30.2817C307.46 30.024 307.619 29.822 307.838 29.6759C308.058 29.5278 308.333 29.4535 308.665 29.453C308.968 29.4526 309.232 29.5185 309.457 29.6507C309.685 29.7811 309.861 29.9693 309.987 30.2153C310.114 30.4594 310.177 30.7519 310.176 31.0928L310.18 33.8713L308.969 33.8731L308.966 31.3106C308.967 31.0416 308.899 30.8324 308.76 30.683C308.624 30.5336 308.432 30.4591 308.186 30.4594C308.021 30.4597 307.875 30.4949 307.749 30.5652C307.624 30.6355 307.525 30.7379 307.454 30.8725C307.384 31.0051 307.348 31.1652 307.346 31.3527ZM315.495 28.0451L315.504 33.8633L314.273 33.8652L314.267 29.2146L314.232 29.2146L312.901 30.0518L312.9 28.9609L314.339 28.0469L315.495 28.0451ZM322.261 30.464L322.263 31.4243L318.263 31.4302L318.261 30.47L322.261 30.464ZM326.944 28.0281L328.16 28.0263L328.166 32.0831C328.167 32.4581 328.083 32.784 327.915 33.0607C327.749 33.3375 327.517 33.5509 327.22 33.701C326.923 33.851 326.577 33.9264 326.183 33.927C325.833 33.9275 325.515 33.8664 325.229 33.7437C324.944 33.6191 324.719 33.4301 324.552 33.1765C324.385 32.9211 324.302 32.6002 324.303 32.2138L325.527 32.212C325.531 32.3654 325.563 32.497 325.622 32.6068C325.683 32.7146 325.765 32.7978 325.869 32.8564C325.975 32.9131 326.1 32.9413 326.244 32.9411C326.396 32.9408 326.524 32.9084 326.628 32.8439C326.734 32.7775 326.814 32.6807 326.869 32.5538C326.924 32.4268 326.951 32.2705 326.951 32.0849L326.944 28.0281ZM331.959 31.9808L331.955 29.4752L333.165 29.4734L333.172 33.837L332.01 33.8387L332.009 33.0461L331.963 33.0462C331.865 33.302 331.702 33.5077 331.473 33.6634C331.246 33.819 330.968 33.8971 330.641 33.8976C330.349 33.898 330.092 33.8321 329.871 33.6999C329.649 33.5676 329.475 33.3794 329.35 33.1353C329.226 32.8912 329.163 32.5986 329.161 32.2577L329.157 29.4793L330.367 29.4775L330.371 32.04C330.373 32.2976 330.443 32.5011 330.579 32.6505C330.716 32.7999 330.899 32.8745 331.128 32.8741C331.274 32.8739 331.41 32.8406 331.537 32.7741C331.664 32.7057 331.766 32.6052 331.843 32.4725C331.922 32.3398 331.961 32.1759 331.959 31.9808ZM335.346 31.311L335.35 33.8337L334.14 33.8355L334.133 29.4719L335.287 29.4702L335.288 30.2401L335.339 30.24C335.435 29.9861 335.597 29.7851 335.824 29.637C336.051 29.487 336.327 29.4118 336.65 29.4113C336.953 29.4109 337.218 29.4768 337.443 29.609C337.669 29.7413 337.844 29.9304 337.97 30.1764C338.095 30.4206 338.158 30.7121 338.159 31.0511L338.163 33.8296L336.952 33.8314L336.949 31.2689C336.95 31.0018 336.882 30.7936 336.743 30.6442C336.605 30.4929 336.414 30.4174 336.172 30.4177C336.009 30.418 335.865 30.4532 335.74 30.5235C335.617 30.5938 335.521 30.6962 335.451 30.8307C335.383 30.9634 335.348 31.1235 335.346 31.311ZM343.479 28.0034L343.488 33.8216L342.258 33.8235L342.251 29.1729L342.217 29.1729L340.886 30.0101L340.884 28.9192L342.323 28.0052L343.479 28.0034ZM346.996 33.8959C346.594 33.8965 346.236 33.8232 345.922 33.6759C345.609 33.5287 345.361 33.3255 345.176 33.0663C344.992 32.8071 344.896 32.5099 344.888 32.1746L346.081 32.1729C346.095 32.3982 346.19 32.5808 346.366 32.7207C346.543 32.8606 346.752 32.9304 346.994 32.93C347.188 32.9297 347.358 32.8869 347.506 32.8014C347.655 32.7141 347.771 32.5936 347.854 32.4401C347.939 32.2847 347.982 32.1066 347.982 31.9058C347.981 31.7013 347.937 31.5214 347.85 31.3663C347.765 31.2111 347.646 31.09 347.494 31.0031C347.343 30.9162 347.169 30.872 346.974 30.8704C346.804 30.8707 346.638 30.9059 346.477 30.9763C346.318 31.0466 346.194 31.1424 346.106 31.2637L345.012 31.0693L345.283 28.0008L348.839 27.9955L348.841 29.0011L346.298 29.0049L346.15 30.4625L346.184 30.4625C346.286 30.3184 346.44 30.1988 346.646 30.1038C346.853 30.0088 347.084 29.9611 347.339 29.9608C347.69 29.9602 348.002 30.0422 348.277 30.2065C348.552 30.3709 348.769 30.5969 348.929 30.8845C349.088 31.1703 349.167 31.4997 349.166 31.8728C349.169 32.2649 349.078 32.6135 348.895 32.9187C348.714 33.222 348.459 33.461 348.132 33.6357C347.806 33.8086 347.428 33.8953 346.996 33.8959Z" fill="#898D9A"/>
<path d="M23.5343 197.479L23.533 196.593L25.6011 194.672C25.777 194.501 25.9245 194.348 26.0436 194.211C26.1646 194.075 26.2563 193.941 26.3186 193.81C26.3809 193.678 26.4119 193.535 26.4117 193.381C26.4115 193.211 26.3724 193.064 26.2946 192.941C26.2167 192.816 26.1105 192.721 25.976 192.655C25.8414 192.587 25.6889 192.553 25.5184 192.553C25.3404 192.553 25.1852 192.589 25.0527 192.662C24.9202 192.734 24.8181 192.837 24.7463 192.972C24.6746 193.106 24.6388 193.266 24.6391 193.452L23.4715 193.454C23.4709 193.073 23.5566 192.742 23.7285 192.462C23.9005 192.181 24.1416 191.964 24.452 191.81C24.7624 191.656 25.1202 191.579 25.5255 191.579C25.9422 191.578 26.305 191.651 26.6139 191.799C26.9247 191.944 27.1665 192.146 27.3392 192.405C27.512 192.665 27.5986 192.962 27.5991 193.297C27.5994 193.517 27.5562 193.734 27.4694 193.948C27.3845 194.162 27.2324 194.4 27.0131 194.662C26.7937 194.921 26.4846 195.233 26.0855 195.598L25.2373 196.431L25.2373 196.471L27.6805 196.467L27.682 197.473L23.5343 197.479ZM29.2922 197.545C29.1047 197.545 28.9436 197.479 28.809 197.346C28.6762 197.212 28.6097 197.051 28.6094 196.864C28.6091 196.678 28.6752 196.519 28.8075 196.386C28.9418 196.253 29.1027 196.187 29.2902 196.187C29.472 196.186 29.6312 196.252 29.7678 196.385C29.9043 196.517 29.9727 196.676 29.973 196.862C29.9732 196.987 29.9412 197.101 29.8769 197.206C29.8146 197.308 29.7323 197.39 29.6301 197.453C29.528 197.514 29.4153 197.544 29.2922 197.545ZM32.8924 197.545C32.4549 197.546 32.0656 197.475 31.7244 197.334C31.3852 197.19 31.1188 196.994 30.9253 196.747C30.7317 196.499 30.6347 196.218 30.6342 195.903C30.6339 195.661 30.6885 195.438 30.798 195.235C30.9094 195.031 31.0607 194.861 31.2518 194.726C31.4429 194.59 31.6568 194.502 31.8935 194.464L31.8934 194.424C31.5827 194.362 31.3306 194.212 31.137 193.974C30.9435 193.733 30.8465 193.454 30.846 193.136C30.8456 192.835 30.9332 192.567 31.109 192.332C31.2848 192.095 31.526 191.909 31.8326 191.774C32.1411 191.637 32.4914 191.568 32.8835 191.568C33.2755 191.567 33.625 191.635 33.9321 191.771C34.241 191.906 34.4837 192.093 34.6602 192.329C34.8367 192.564 34.9261 192.831 34.9284 193.13C34.927 193.45 34.8289 193.729 34.6342 193.968C34.4395 194.207 34.1897 194.358 33.8849 194.421L33.8849 194.461C34.1179 194.499 34.3292 194.585 34.5188 194.721C34.7103 194.856 34.8621 195.025 34.9741 195.229C35.0881 195.432 35.1462 195.654 35.1484 195.897C35.147 196.211 35.0499 196.492 34.8571 196.741C34.6643 196.989 34.3975 197.186 34.0568 197.33C33.718 197.473 33.3299 197.544 32.8924 197.545ZM32.891 196.641C33.0861 196.641 33.2565 196.606 33.4022 196.536C33.548 196.463 33.6614 196.365 33.7427 196.24C33.8258 196.113 33.8673 195.967 33.867 195.802C33.8668 195.633 33.824 195.485 33.7385 195.356C33.6531 195.226 33.5374 195.123 33.3915 195.05C33.2455 194.974 33.0779 194.937 32.8885 194.937C32.701 194.937 32.5334 194.975 32.3858 195.051C32.2382 195.125 32.1219 195.228 32.0368 195.359C31.9537 195.488 31.9122 195.636 31.9125 195.805C31.9127 195.97 31.9537 196.115 32.0353 196.242C32.1169 196.367 32.2317 196.465 32.3795 196.537C32.5273 196.607 32.6978 196.642 32.891 196.641ZM32.8871 194.042C33.05 194.042 33.1949 194.008 33.3217 193.942C33.4485 193.875 33.5477 193.783 33.6195 193.666C33.6913 193.548 33.7271 193.413 33.7269 193.26C33.7267 193.108 33.6905 192.975 33.6183 192.862C33.5462 192.747 33.4476 192.657 33.3225 192.593C33.1974 192.526 33.0515 192.493 32.8848 192.494C32.7201 192.494 32.5743 192.527 32.4475 192.594C32.3207 192.658 32.2214 192.749 32.1496 192.864C32.0797 192.978 32.0448 193.111 32.0451 193.262C32.0453 193.415 32.0815 193.551 32.1536 193.668C32.2258 193.785 32.3253 193.877 32.4523 193.943C32.5793 194.009 32.7243 194.042 32.8871 194.042ZM36.0363 191.642L37.5533 191.64L39.1614 195.547L39.2296 195.547L40.826 191.635L42.3431 191.633L42.3518 197.451L41.1586 197.453L41.1529 193.666L41.1046 193.666L39.6046 197.427L38.7921 197.428L37.2808 193.658L37.2325 193.658L37.2381 197.459L36.0449 197.461L36.0363 191.642ZM47.9896 195.585L47.9859 193.079L49.1961 193.077L49.2026 197.441L48.0407 197.443L48.0395 196.65L47.994 196.65C47.8959 196.906 47.7324 197.112 47.5035 197.267C47.2764 197.423 46.9991 197.501 46.6715 197.502C46.3798 197.502 46.1231 197.436 45.9013 197.304C45.6795 197.172 45.5059 196.983 45.3805 196.739C45.2571 196.495 45.1941 196.203 45.1917 195.862L45.1876 193.083L46.3978 193.082L46.4016 195.644C46.4039 195.902 46.4733 196.105 46.6099 196.255C46.7465 196.404 46.9294 196.479 47.1586 196.478C47.3044 196.478 47.4407 196.445 47.5675 196.378C47.6943 196.31 47.7964 196.209 47.8739 196.077C47.9532 195.944 47.9918 195.78 47.9896 195.585ZM51.3771 194.915L51.3809 197.438L50.1707 197.44L50.1642 193.076L51.3176 193.074L51.3187 193.844L51.3698 193.844C51.4661 193.59 51.6277 193.389 51.8547 193.241C52.0818 193.091 52.3573 193.016 52.6811 193.015C52.9841 193.015 53.2484 193.081 53.474 193.213C53.6996 193.345 53.8751 193.534 54.0004 193.78C54.1258 194.025 54.1887 194.316 54.1892 194.655L54.1934 197.434L52.9832 197.435L52.9793 194.873C52.9808 194.606 52.9123 194.398 52.7739 194.248C52.6354 194.097 52.4449 194.021 52.2025 194.022C52.0396 194.022 51.8957 194.057 51.7708 194.128C51.6478 194.198 51.5514 194.3 51.4815 194.435C51.4135 194.567 51.3787 194.728 51.3771 194.915ZM55.1472 197.432L55.1407 193.069L56.3509 193.067L56.3574 197.43L55.1472 197.432ZM55.7478 192.505C55.5679 192.505 55.4135 192.446 55.2845 192.327C55.1574 192.206 55.0938 192.061 55.0935 191.892C55.0933 191.726 55.1565 191.583 55.2832 191.463C55.4118 191.342 55.5661 191.281 55.746 191.281C55.9259 191.28 56.0794 191.341 56.2065 191.462C56.3355 191.581 56.4001 191.724 56.4003 191.891C56.4006 192.059 56.3364 192.204 56.2078 192.325C56.0811 192.445 55.9278 192.505 55.7478 192.505ZM60.2129 199.061L60.2094 196.726L60.1725 196.726C60.1158 196.847 60.0355 196.968 59.9315 197.087C59.8294 197.205 59.696 197.302 59.5314 197.38C59.3686 197.458 59.1698 197.497 58.935 197.498C58.6035 197.498 58.3032 197.413 58.034 197.243C57.7667 197.071 57.5542 196.819 57.3965 196.486C57.2407 196.151 57.1625 195.74 57.1617 195.253C57.161 194.753 57.2409 194.337 57.4014 194.006C57.5618 193.672 57.7755 193.423 58.0423 193.257C58.311 193.09 58.6054 193.007 58.9254 193.006C59.1698 193.006 59.3734 193.047 59.5364 193.13C59.7013 193.211 59.834 193.313 59.9346 193.436C60.0371 193.557 60.1149 193.677 60.1681 193.794L60.2192 193.794L60.2181 193.061L61.4113 193.059L61.4203 199.059L60.2129 199.061ZM59.3171 196.534C59.5121 196.534 59.6768 196.48 59.8111 196.374C59.9473 196.266 60.0513 196.115 60.123 195.922C60.1965 195.729 60.2331 195.502 60.2327 195.243C60.2324 194.983 60.196 194.758 60.1238 194.567C60.0515 194.376 59.9471 194.228 59.8106 194.124C59.6741 194.02 59.5083 193.968 59.3132 193.969C59.1144 193.969 58.9468 194.023 58.8106 194.131C58.6744 194.239 58.5714 194.389 58.5016 194.581C58.4319 194.772 58.3971 194.994 58.3975 195.246C58.3979 195.499 58.4333 195.724 58.5036 195.919C58.5759 196.112 58.6793 196.263 58.814 196.373C58.9505 196.48 59.1182 196.534 59.3171 196.534ZM65.1849 195.559L65.1812 193.054L66.3914 193.052L66.3979 197.415L65.236 197.417L65.2348 196.625L65.1894 196.625C65.0913 196.88 64.9277 197.086 64.6988 197.242C64.4718 197.397 64.1944 197.476 63.8668 197.476C63.5751 197.476 63.3184 197.411 63.0966 197.278C62.8748 197.146 62.7012 196.958 62.5759 196.714C62.4524 196.47 62.3894 196.177 62.387 195.836L62.3829 193.058L63.5931 193.056L63.5969 195.618C63.5992 195.876 63.6687 196.08 63.8052 196.229C63.9418 196.378 64.1247 196.453 64.3539 196.453C64.4997 196.452 64.636 196.419 64.7628 196.353C64.8896 196.284 64.9917 196.184 65.0692 196.051C65.1485 195.918 65.1871 195.754 65.1849 195.559ZM69.3547 197.496C68.9059 197.497 68.5194 197.407 68.1952 197.225C67.873 197.042 67.6245 196.783 67.4498 196.448C67.275 196.111 67.1873 195.713 67.1866 195.252C67.1859 194.803 67.2725 194.409 67.4462 194.07C67.62 193.731 67.8648 193.466 68.1808 193.276C68.4987 193.087 68.8717 192.991 69.2997 192.991C69.5876 192.99 69.8557 193.036 70.1039 193.129C70.354 193.219 70.5721 193.356 70.7579 193.54C70.9457 193.723 71.0919 193.954 71.1965 194.232C71.301 194.508 71.3536 194.832 71.3542 195.203L71.3547 195.536L67.67 195.541L67.6689 194.791L70.2143 194.788C70.2141 194.613 70.176 194.459 70.1 194.325C70.024 194.19 69.9188 194.085 69.7842 194.01C69.6515 193.932 69.4971 193.894 69.321 193.894C69.1372 193.894 68.9744 193.937 68.8325 194.023C68.6925 194.106 68.5828 194.219 68.5035 194.361C68.4241 194.501 68.3836 194.658 68.382 194.83L68.3831 195.543C68.3834 195.759 68.4234 195.946 68.5032 196.103C68.5849 196.26 68.6997 196.381 68.8475 196.466C68.9954 196.551 69.1706 196.593 69.3733 196.593C69.5077 196.593 69.6308 196.573 69.7425 196.535C69.8542 196.497 69.9498 196.44 70.0292 196.365C70.1086 196.289 70.1691 196.196 70.2106 196.086L71.33 196.158C71.2736 196.427 71.1575 196.662 70.9816 196.863C70.8077 197.062 70.5825 197.218 70.3062 197.33C70.0317 197.44 69.7146 197.496 69.3547 197.496ZM78.0605 193.034L76.5414 197.4L75.1778 197.402L73.6457 193.041L74.9241 193.039L75.835 196.16L75.8805 196.16L76.7792 193.036L78.0605 193.034ZM78.6863 197.397L78.6798 193.033L79.89 193.032L79.8965 197.395L78.6863 197.397ZM79.2869 192.47C79.107 192.47 78.9525 192.411 78.8236 192.292C78.6965 192.171 78.6328 192.026 78.6326 191.857C78.6323 191.691 78.6956 191.548 78.8223 191.428C78.9509 191.307 79.1051 191.246 79.2851 191.246C79.465 191.245 79.6185 191.306 79.7456 191.427C79.8745 191.546 79.9391 191.689 79.9394 191.855C79.9396 192.024 79.8755 192.169 79.7469 192.29C79.6201 192.41 79.4668 192.47 79.2869 192.47ZM84.492 194.269L83.3841 194.339C83.3651 194.244 83.3242 194.159 83.2616 194.083C83.199 194.006 83.1165 193.944 83.0142 193.899C82.9137 193.852 82.7934 193.828 82.6533 193.829C82.4658 193.829 82.3077 193.869 82.179 193.949C82.0503 194.027 81.9861 194.131 81.9863 194.261C81.9865 194.366 82.0283 194.454 82.1117 194.526C82.1951 194.597 82.3382 194.655 82.5409 194.698L83.3309 194.856C83.7553 194.943 84.0718 195.082 84.2804 195.275C84.4891 195.468 84.5936 195.722 84.5941 196.036C84.5945 196.322 84.5106 196.573 84.3423 196.789C84.176 197.005 83.9471 197.174 83.6556 197.296C83.366 197.416 83.0318 197.476 82.653 197.476C82.0754 197.477 81.615 197.358 81.2718 197.118C80.9305 196.876 80.7302 196.547 80.6709 196.13L81.8612 196.066C81.8974 196.242 81.9847 196.376 82.1231 196.469C82.2615 196.559 82.4387 196.605 82.6546 196.604C82.8667 196.604 83.0371 196.563 83.1658 196.481C83.2963 196.398 83.3624 196.291 83.3641 196.16C83.3621 196.05 83.3155 195.96 83.2245 195.89C83.1335 195.819 82.9933 195.764 82.8038 195.726L82.0479 195.577C81.6217 195.492 81.3042 195.345 81.0956 195.135C80.8888 194.925 80.7852 194.657 80.7847 194.331C80.7843 194.051 80.8597 193.81 81.0109 193.607C81.164 193.404 81.3787 193.247 81.6551 193.137C81.9333 193.027 82.259 192.971 82.6321 192.971C83.1832 192.97 83.6171 193.086 83.9338 193.318C84.2523 193.551 84.4384 193.868 84.492 194.269ZM85.3582 197.387L85.3517 193.024L86.5619 193.022L86.5684 197.385L85.3582 197.387ZM85.9588 192.46C85.7788 192.46 85.6244 192.401 85.4954 192.282C85.3684 192.161 85.3047 192.016 85.3044 191.847C85.3042 191.681 85.3674 191.538 85.4941 191.418C85.6228 191.297 85.777 191.236 85.9569 191.236C86.1369 191.235 86.2904 191.296 86.4174 191.417C86.5464 191.536 86.611 191.679 86.6113 191.846C86.6115 192.014 86.5473 192.159 86.4187 192.28C86.292 192.4 86.1387 192.46 85.9588 192.46ZM89.8524 193.017L89.8537 193.926L87.2259 193.93L87.2245 193.021L89.8524 193.017ZM87.8196 191.974L89.0298 191.973L89.0358 196.041C89.036 196.153 89.0532 196.24 89.0874 196.302C89.1216 196.363 89.169 196.405 89.2296 196.43C89.2921 196.454 89.3641 196.466 89.4456 196.466C89.5024 196.466 89.5592 196.461 89.616 196.452C89.6728 196.44 89.7164 196.432 89.7466 196.426L89.9383 197.326C89.8778 197.345 89.7926 197.367 89.6827 197.392C89.5729 197.419 89.4394 197.435 89.2823 197.441C88.9906 197.453 88.7349 197.414 88.515 197.326C88.2971 197.237 88.1274 197.099 88.0059 196.912C87.8844 196.724 87.8244 196.488 87.8259 196.202L87.8196 191.974ZM92.5721 197.462C92.1308 197.462 91.749 197.369 91.4268 197.182C91.1064 196.993 90.8588 196.73 90.6841 196.393C90.5094 196.055 90.4216 195.662 90.421 195.215C90.4203 194.764 90.5068 194.37 90.6806 194.033C90.8543 193.693 91.1011 193.43 91.4209 193.242C91.7426 193.052 92.1241 192.957 92.5653 192.956C93.0066 192.955 93.3875 193.049 93.7078 193.238C94.0301 193.425 94.2786 193.688 94.4533 194.027C94.6281 194.364 94.7158 194.758 94.7164 195.208C94.7171 195.655 94.6306 196.049 94.4568 196.388C94.2831 196.725 94.0354 196.989 93.7137 197.179C93.3939 197.367 93.0133 197.461 92.5721 197.462ZM92.5763 196.524C92.7771 196.524 92.9446 196.467 93.0789 196.353C93.2132 196.237 93.3143 196.08 93.3822 195.881C93.452 195.682 93.4867 195.456 93.4863 195.202C93.4859 194.948 93.4506 194.722 93.3802 194.523C93.3117 194.324 93.2101 194.167 93.0755 194.052C92.9409 193.936 92.7732 193.879 92.5724 193.879C92.3698 193.88 92.1994 193.938 92.0613 194.053C91.9251 194.169 91.8221 194.326 91.7523 194.525C91.6845 194.724 91.6507 194.951 91.6511 195.204C91.6515 195.458 91.6859 195.685 91.7544 195.883C91.8247 196.082 91.9282 196.239 92.0647 196.354C92.2032 196.468 92.3737 196.524 92.5763 196.524ZM95.5066 197.372L95.5001 193.008L96.6734 193.007L96.6745 193.768L96.72 193.768C96.7991 193.497 96.9323 193.292 97.1196 193.154C97.3069 193.013 97.5227 192.943 97.767 192.943C97.8276 192.942 97.893 192.946 97.9631 192.954C98.0332 192.961 98.0947 192.971 98.1478 192.985L98.1494 194.058C98.0925 194.041 98.0139 194.026 97.9135 194.013C97.8131 194 97.7213 193.994 97.6379 193.994C97.4599 193.994 97.3009 194.033 97.1608 194.111C97.0227 194.187 96.913 194.293 96.8318 194.43C96.7524 194.566 96.7129 194.723 96.7131 194.901L96.7168 197.37L95.5066 197.372ZM102.406 194.242L101.298 194.312C101.279 194.218 101.238 194.132 101.176 194.057C101.113 193.979 101.031 193.918 100.928 193.872C100.828 193.825 100.707 193.802 100.567 193.802C100.38 193.802 100.222 193.842 100.093 193.922C99.9644 194 99.9002 194.104 99.9004 194.235C99.9005 194.339 99.9423 194.427 100.026 194.499C100.109 194.571 100.252 194.628 100.455 194.671L101.245 194.829C101.669 194.916 101.986 195.056 102.194 195.248C102.403 195.441 102.508 195.695 102.508 196.009C102.509 196.295 102.425 196.546 102.256 196.763C102.09 196.979 101.861 197.148 101.57 197.269C101.28 197.389 100.946 197.449 100.567 197.45C99.9894 197.451 99.529 197.331 99.1859 197.091C98.8446 196.849 98.6443 196.52 98.585 196.103L99.7752 196.039C99.8115 196.215 99.8988 196.349 100.037 196.442C100.176 196.533 100.353 196.578 100.569 196.578C100.781 196.577 100.951 196.536 101.08 196.455C101.21 196.371 101.276 196.264 101.278 196.133C101.276 196.023 101.23 195.934 101.139 195.864C101.048 195.792 100.907 195.737 100.718 195.699L99.962 195.55C99.5357 195.465 99.2183 195.318 99.0096 195.108C98.8029 194.898 98.6992 194.631 98.6988 194.305C98.6983 194.024 98.7737 193.783 98.925 193.58C99.0781 193.377 99.2928 193.221 99.5691 193.11C99.8474 193 100.173 192.945 100.546 192.944C101.097 192.943 101.531 193.059 101.848 193.292C102.166 193.524 102.352 193.841 102.406 194.242Z" fill="#171A22"/>
</svg>
