<svg width="48" height="48" viewBox="0 0 48 48" fill="none" xmlns="http://www.w3.org/2000/svg">
<path d="M0 4.9C0 2.19381 2.1938 0 4.9 0H43.1C45.8062 0 48 2.1938 48 4.9V43.1C48 45.8062 45.8062 48 43.1 48H4.9C2.19381 48 0 45.8062 0 43.1V4.9Z" fill="#E9F7FF"/>
<path d="M24 16C22.8954 16 22 16.8954 22 18V29C22 30.1046 22.8954 31 24 31C25.1046 31 26 30.1046 26 29V18C26 16.8954 25.1046 16 24 16Z" fill="#00A9FF"/>
<path d="M28 21C28 19.8954 28.8954 19 30 19C31.1046 19 32 19.8954 32 21V29C32 30.1046 31.1046 31 30 31C28.8954 31 28 30.1046 28 29V21Z" fill="#00A9FF"/>
<path d="M16 24C16 22.8954 16.8954 22 18 22C19.1046 22 20 22.8954 20 24V29C20 30.1046 19.1046 31 18 31C16.8954 31 16 30.1046 16 29V24Z" fill="#00A9FF"/>
</svg>
