<svg width="48" height="48" viewBox="0 0 48 48" fill="none" xmlns="http://www.w3.org/2000/svg">
<path d="M0 4.9C0 2.19381 2.1938 0 4.9 0H43.1C45.8062 0 48 2.1938 48 4.9V43.1C48 45.8062 45.8062 48 43.1 48H4.9C2.19381 48 0 45.8062 0 43.1V4.9Z" fill="#E9F7FF"/>
<path fill-rule="evenodd" clip-rule="evenodd" d="M15 19.9787C15 17.7813 16.7909 16 19 16H29C31.2091 16 33 17.7813 33 19.9787V24.952C33 27.1494 31.2091 28.9307 29 28.9307H27.9142C27.649 28.9307 27.3946 29.0355 27.2071 29.222L24.7071 31.7087C24.3166 32.0971 23.6834 32.0971 23.2929 31.7087L20.7929 29.222C20.6054 29.0355 20.351 28.9307 20.0858 28.9307H19C16.7909 28.9307 15 27.1494 15 24.952V19.9787ZM26.2014 20C26.682 20 27.1338 20.1812 27.4733 20.51C27.8129 20.8389 28 21.2762 28 21.7413C28 22.2064 27.8129 22.6436 27.4733 22.9725L24.5922 25.7624C24.4341 25.9156 24.2237 26 24 26C23.7763 26 23.566 25.9156 23.4078 25.7624L20.5267 22.9725C20.1871 22.6436 20 22.2064 20 21.7413C20 21.2762 20.1871 20.8389 20.5267 20.51C20.8663 20.1812 21.318 20 21.7986 20C22.1845 20 22.5528 20.1172 22.8639 20.3388L24 21.1484L25.1361 20.3388C25.4472 20.1172 25.8155 20 26.2014 20Z" fill="#00A9FF"/>
</svg>
