<svg width="48" height="48" viewBox="0 0 48 48" fill="none" xmlns="http://www.w3.org/2000/svg">
<path d="M0 4.9C0 2.19381 2.1938 0 4.9 0H43.1C45.8062 0 48 2.1938 48 4.9V43.1C48 45.8062 45.8062 48 43.1 48H4.9C2.19381 48 0 45.8062 0 43.1V4.9Z" fill="#E9F7FF"/>
<path fill-rule="evenodd" clip-rule="evenodd" d="M17 22.7423C17 18.625 20.0963 15 24 15C27.9037 15 31 18.625 31 22.7423C31 27.0096 28.1944 30.4139 25.0253 32.671C24.4088 33.1101 23.5915 33.1096 22.9752 32.6701C19.8068 30.4108 17 27.0132 17 22.7423ZM24 25C25.6569 25 27 23.6569 27 22C27 20.3431 25.6569 19 24 19C22.3431 19 21 20.3431 21 22C21 23.6569 22.3431 25 24 25Z" fill="#00A9FF"/>
</svg>
