<svg width="48" height="48" viewBox="0 0 48 48" fill="none" xmlns="http://www.w3.org/2000/svg">
<path d="M0 4.9C0 2.19381 2.1938 0 4.9 0H43.1C45.8062 0 48 2.1938 48 4.9V43.1C48 45.8062 45.8062 48 43.1 48H4.9C2.19381 48 0 45.8062 0 43.1V4.9Z" fill="#E9F7FF"/>
<path d="M25.5649 15.8652C26.7185 14.7116 28.5888 14.7116 29.7424 15.8652L31.1348 17.2576C32.2884 18.4112 32.2884 20.2815 31.1348 21.4351L30.6672 21.9027L25.0973 16.3328L25.5649 15.8652Z" fill="#00A9FF"/>
<path d="M23.7048 17.7253L29.2747 23.2952L22.8109 29.759C22.5117 30.0582 22.1241 30.2531 21.7055 30.3147L17.1284 30.9892C16.4755 31.0854 15.9146 30.5245 16.0108 29.8716L16.6853 25.2945C16.7469 24.8759 16.9418 24.4883 17.241 24.1891L23.7048 17.7253Z" fill="#00A9FF"/>
<path d="M26.4999 30C25.6715 30 24.9999 30.6716 24.9999 31.5C24.9999 32.3284 25.6715 33 26.4999 33H30.4999C31.3284 33 31.9999 32.3284 31.9999 31.5C31.9999 30.6716 31.3284 30 30.4999 30H26.4999Z" fill="#00A9FF"/>
</svg>
