<svg width="48" height="48" viewBox="0 0 48 48" fill="none" xmlns="http://www.w3.org/2000/svg">
<path d="M0 4.9C0 2.19381 2.1938 0 4.9 0H43.1C45.8062 0 48 2.1938 48 4.9V43.1C48 45.8062 45.8062 48 43.1 48H4.9C2.19381 48 0 45.8062 0 43.1V4.9Z" fill="#E9F7FF"/>
<g clip-path="url(#clip0_1035_15029)">
<path d="M22.0905 18.4645C19.3271 17.7018 18.7959 17.1704 18.0332 14.4074C17.9665 14.1667 17.7478 14 17.4978 14C17.2478 14 17.0291 14.1667 16.9624 14.4074C16.1999 17.1703 15.6686 17.7019 12.9051 18.4645C12.6645 18.5312 12.4978 18.7499 12.4978 19C12.4978 19.2501 12.6645 19.4688 12.9051 19.5355C15.6685 20.2992 16.1997 20.8296 16.9624 23.5926C17.0291 23.8333 17.2478 24 17.4978 24C17.7478 24 17.9665 23.8333 18.0332 23.5926C18.7957 20.8286 19.327 20.2981 22.0905 19.5355C22.3311 19.4688 22.4978 19.2501 22.4978 19C22.4978 18.7499 22.3301 18.5312 22.0905 18.4645Z" fill="#00A9FF"/>
<path d="M34.9276 24.2503C31.0588 23.1825 30.3151 22.4386 29.2474 18.5703C29.154 18.2334 28.8478 18 28.4978 18C28.1478 18 27.8416 18.2334 27.7482 18.5703C26.6807 22.4385 25.937 23.1827 22.068 24.2503C21.7311 24.3436 21.4978 24.6499 21.4978 25C21.4978 25.3501 21.7311 25.6564 22.068 25.7497C25.9368 26.8189 26.6805 27.5614 27.7482 31.4297C27.8416 31.7666 28.1478 32 28.4978 32C28.8478 32 29.154 31.7666 29.2474 31.4297C30.3149 27.56 31.0586 26.8173 34.9276 25.7497C35.2645 25.6564 35.4978 25.3501 35.4978 25C35.4978 24.6499 35.263 24.3436 34.9276 24.2503Z" fill="#00A9FF"/>
<path d="M20.9978 30.3787L18.5585 27.9393C17.9727 27.3536 17.0229 27.3536 16.4371 27.9393L12.4371 31.9393C11.8514 32.5251 11.8514 33.4749 12.4371 34.0607C13.0229 34.6464 13.9727 34.6464 14.5585 34.0607L17.4978 31.1213L19.9371 33.5607C20.5229 34.1464 21.4727 34.1464 22.0585 33.5607L24.5585 31.0607C25.1442 30.4749 25.1442 29.5251 24.5585 28.9393C23.9727 28.3536 23.0229 28.3536 22.4371 28.9393L20.9978 30.3787Z" fill="#00A9FF"/>
</g>
<defs>
<clipPath id="clip0_1035_15029">
<rect width="24" height="24" fill="white" transform="translate(12.0001 12)"/>
</clipPath>
</defs>
</svg>
