<svg width="32" height="32" viewBox="0 0 32 32" fill="none" xmlns="http://www.w3.org/2000/svg">
<g clip-path="url(#clip0_1206_26501)">
<path d="M13.4538 8.61938C9.76919 7.6025 9.06092 6.89401 8.04404 3.2099C7.95515 2.889 7.66349 2.66675 7.33016 2.66675C6.99683 2.66675 6.70517 2.88902 6.61628 3.2099C5.59961 6.89387 4.89128 7.60264 1.20653 8.61938C0.8857 8.70829 0.663493 9.00001 0.663493 9.33342C0.663493 9.66682 0.885714 9.95854 1.20653 10.0474C4.89113 11.0657 5.5994 11.7728 6.61628 15.4569C6.70517 15.7778 6.99683 16.0001 7.33016 16.0001C7.66349 16.0001 7.95515 15.7778 8.04404 15.4569C9.06071 11.7715 9.76904 11.0642 13.4538 10.0474C13.7746 9.95854 13.9968 9.66682 13.9968 9.33342C13.9968 9.00001 13.7732 8.70829 13.4538 8.61938Z" fill="url(#paint0_linear_1206_26501)"/>
<path d="M30.5699 16.3338C25.4115 14.9101 24.4199 13.9182 22.9963 8.7605C22.8718 8.31124 22.4635 8.00008 21.9968 8.00008C21.5302 8.00008 21.1218 8.31126 20.9974 8.7605C19.5741 13.918 18.5824 14.9103 13.4237 16.3338C12.9746 16.4582 12.6635 16.8667 12.6635 17.3334C12.6635 17.8002 12.9746 18.2086 13.4237 18.3331C18.5822 19.7586 19.5738 20.7486 20.9974 25.9063C21.1218 26.3556 21.5302 26.6667 21.9968 26.6667C22.4635 26.6667 22.8718 26.3556 22.9963 25.9063C24.4196 20.7468 25.4113 19.7565 30.5699 18.3331C31.0191 18.2086 31.3302 17.8002 31.3302 17.3334C31.3302 16.8667 31.0171 16.4582 30.5699 16.3338Z" fill="url(#paint1_linear_1206_26501)"/>
<path d="M11.9968 24.505L8.74437 21.2525C7.96332 20.4715 6.69699 20.4715 5.91595 21.2525L0.582613 26.5859C-0.198436 27.3669 -0.198436 28.6332 0.582613 29.4143C1.36366 30.1953 2.62999 30.1953 3.41104 29.4143L7.33016 25.4952L10.5826 28.7476C11.3637 29.5287 12.63 29.5287 13.411 28.7476L16.7444 25.4143C17.5254 24.6332 17.5254 23.3669 16.7444 22.5859C15.9633 21.8048 14.697 21.8048 13.9159 22.5859L11.9968 24.505Z" fill="url(#paint2_linear_1206_26501)"/>
</g>
<defs>
<linearGradient id="paint0_linear_1206_26501" x1="33.44" y1="-5.21759" x2="53.1174" y2="44.9512" gradientUnits="userSpaceOnUse">
<stop stop-color="#B86FFF"/>
<stop offset="0.856912" stop-color="#00A9FF"/>
</linearGradient>
<linearGradient id="paint1_linear_1206_26501" x1="33.44" y1="-5.21759" x2="53.1174" y2="44.9512" gradientUnits="userSpaceOnUse">
<stop stop-color="#B86FFF"/>
<stop offset="0.856912" stop-color="#00A9FF"/>
</linearGradient>
<linearGradient id="paint2_linear_1206_26501" x1="33.44" y1="-5.21759" x2="53.1174" y2="44.9512" gradientUnits="userSpaceOnUse">
<stop stop-color="#B86FFF"/>
<stop offset="0.856912" stop-color="#00A9FF"/>
</linearGradient>
<clipPath id="clip0_1206_26501">
<rect width="32" height="32" fill="white"/>
</clipPath>
</defs>
</svg>
