<svg width="32" height="32" viewBox="0 0 32 32" fill="none" xmlns="http://www.w3.org/2000/svg">
<g clip-path="url(#clip0_1206_26496)">
<path d="M19.9999 21.8333C20.2665 21.8334 20.5004 22.0116 20.5715 22.2682C21.3849 25.2149 21.9513 25.7817 24.8983 26.5951C25.1538 26.6662 25.3332 26.9 25.3332 27.1667C25.3332 27.4333 25.1549 27.6671 24.8983 27.7383C21.9512 28.5516 21.3847 29.1174 20.5715 32.0651C20.5004 32.3217 20.2665 32.4999 19.9999 32.5C19.7332 32.5 19.4994 32.3218 19.4283 32.0651C18.6149 29.1185 18.0483 28.5528 15.1014 27.7383C14.8448 27.6672 14.6666 27.4334 14.6666 27.1667C14.6666 26.8999 14.8448 26.6662 15.1014 26.5951C18.0485 25.7818 18.6151 25.2147 19.4283 22.2682C19.4994 22.0115 19.7332 21.8333 19.9999 21.8333Z" fill="url(#paint0_linear_1206_26496)"/>
<path d="M12.0025 4.5C14.371 4.50034 16.5326 5.38442 18.1783 6.83854C17.9802 6.98124 17.4132 7.28384 15.5871 7.78776L15.5832 7.78906C14.8783 7.98445 14.2467 8.33069 13.716 8.78385C13.1778 8.60107 12.6012 8.50011 12.0012 8.5C9.05567 8.5 6.66785 10.8878 6.66785 13.8333C6.66785 16.7789 9.05567 19.1667 12.0012 19.1667C13.6049 19.1664 15.0419 18.4565 16.0194 17.3359C17.8729 17.8735 18.1833 18.1457 18.2694 18.2318C18.3469 18.3094 18.5758 18.5707 19.0155 19.987C17.3051 21.9348 14.7982 23.1663 12.0025 23.1667C10.3828 23.1667 8.85872 22.7531 7.53113 22.0273C3.53113 26.0768 4.82121 24.7863 3.53113 26.0768C2.75028 26.8577 1.4828 26.8573 0.701705 26.0768C-0.0792612 25.2958 -0.0792972 24.0284 0.701705 23.2474C1.97396 21.9756 0.701705 23.2474 4.52853 19.4258C3.36044 17.8672 2.66915 15.9309 2.66915 13.8333C2.66915 8.67868 6.84783 4.5 12.0025 4.5Z" fill="url(#paint1_linear_1206_26496)"/>
<path d="M23.9999 4.5C24.3998 4.50009 24.75 4.76733 24.8567 5.15234C26.0768 9.57275 26.9275 10.423 31.3488 11.6432C31.7318 11.7502 31.9999 12.1002 31.9999 12.5C31.9999 12.8998 31.7334 13.2498 31.3488 13.3568C26.9273 14.5768 26.0766 15.4257 24.8567 19.8477C24.75 20.2327 24.3998 20.4999 23.9999 20.5C23.5999 20.5 23.2498 20.2327 23.1431 19.8477C22.5529 17.7095 22.048 16.408 21.1848 15.4948C19.982 14.2821 18.2546 13.8 16.6509 13.3568C16.2663 13.2499 15.9999 12.8999 15.9999 12.5C15.9999 12.1001 16.2662 11.7501 16.6509 11.6432C17.867 11.3077 19.1263 10.9577 20.2069 10.2917C21.9844 9.10898 22.5976 7.1288 23.1431 5.15234C23.2498 4.76731 23.5999 4.5 23.9999 4.5Z" fill="url(#paint2_linear_1206_26496)"/>
</g>
<defs>
<linearGradient id="paint0_linear_1206_26496" x1="34.1468" y1="-3.57664" x2="54.4028" y2="47.7238" gradientUnits="userSpaceOnUse">
<stop stop-color="#B86FFF"/>
<stop offset="0.856912" stop-color="#00A9FF"/>
</linearGradient>
<linearGradient id="paint1_linear_1206_26496" x1="34.1468" y1="-3.57664" x2="54.4028" y2="47.7238" gradientUnits="userSpaceOnUse">
<stop stop-color="#B86FFF"/>
<stop offset="0.856912" stop-color="#00A9FF"/>
</linearGradient>
<linearGradient id="paint2_linear_1206_26496" x1="34.1468" y1="-3.57664" x2="54.4028" y2="47.7238" gradientUnits="userSpaceOnUse">
<stop stop-color="#B86FFF"/>
<stop offset="0.856912" stop-color="#00A9FF"/>
</linearGradient>
<clipPath id="clip0_1206_26496">
<rect width="32" height="32" fill="white"/>
</clipPath>
</defs>
</svg>
